<?xml version="1.0" standalone="no"?>
<!DOCTYPE svg PUBLIC "-//W3C//DTD SVG 20010904//EN"
 "http://www.w3.org/TR/2001/REC-SVG-20010904/DTD/svg10.dtd">
<svg version="1.0" xmlns="http://www.w3.org/2000/svg"
 width="4704.000000pt" height="4704.000000pt" viewBox="0 0 4704.000000 4704.000000"
 preserveAspectRatio="xMidYMid meet">
<metadata>
Created by potrace 1.14, written by Peter Selinger 2001-2017
</metadata>
<g transform="translate(0.000000,4704.000000) scale(0.100000,-0.100000)"
fill="#000000" stroke="none">
<path d="M17828 26365 c-1 -2 -71 -6 -153 -9 -83 -4 -162 -8 -175 -11 -13 -3
-54 -7 -90 -11 -36 -3 -74 -8 -85 -10 -11 -3 -32 -6 -47 -9 -54 -7 -263 -51
-263 -55 0 -1 -7 -3 -15 -5 -81 -16 -278 -81 -367 -121 -17 -8 -34 -14 -38
-14 -3 0 -53 -22 -110 -50 -57 -27 -109 -50 -114 -50 -6 0 -11 -4 -11 -10 0
-5 -5 -10 -11 -10 -6 0 -45 -20 -86 -45 -40 -25 -75 -45 -78 -45 -7 0 -151
-99 -200 -138 -5 -4 -32 -25 -60 -46 -105 -79 -309 -272 -367 -348 -14 -18
-34 -42 -45 -53 -34 -38 -119 -150 -126 -167 -3 -10 -10 -18 -16 -18 -5 0 -11
-8 -15 -17 -3 -10 -24 -45 -45 -78 -72 -108 -171 -302 -219 -430 -41 -109 -45
-118 -48 -133 -1 -8 -6 -21 -10 -30 -4 -9 -8 -23 -10 -31 -1 -8 -9 -35 -18
-60 -8 -25 -17 -57 -20 -71 -2 -14 -10 -47 -16 -75 -6 -27 -14 -63 -16 -80 -2
-16 -6 -39 -8 -50 -49 -253 -53 -680 -9 -955 4 -25 8 -52 9 -60 2 -18 10 -55
18 -90 3 -14 8 -36 10 -50 6 -35 57 -220 69 -250 3 -8 11 -33 18 -55 6 -22 15
-44 19 -50 4 -5 11 -21 15 -35 12 -43 96 -224 119 -255 11 -16 20 -32 19 -35
-1 -6 77 -142 86 -150 3 -3 12 -16 19 -30 16 -32 166 -233 212 -285 48 -54
225 -232 277 -278 23 -20 81 -66 130 -103 48 -36 96 -72 106 -80 9 -8 22 -14
27 -14 6 0 10 -3 10 -7 0 -5 10 -13 23 -19 12 -6 53 -30 91 -53 94 -58 274
-150 281 -143 3 3 5 0 5 -6 0 -7 8 -12 18 -12 10 0 22 -4 28 -9 8 -7 207 -85
247 -96 4 -2 9 -4 12 -5 3 -1 8 -3 13 -4 44 -12 100 -28 112 -33 8 -3 22 -7
30 -9 8 -2 33 -7 55 -13 22 -5 54 -13 70 -17 17 -4 37 -9 45 -11 18 -4 29 -6
151 -27 53 -8 118 -18 145 -21 27 -3 74 -8 104 -11 30 -3 105 -7 167 -9 62 -2
117 -6 123 -10 5 -3 10 -2 10 2 0 5 17 7 38 5 49 -4 43 -4 152 2 182 10 248
17 395 42 140 23 160 27 190 37 11 3 31 8 45 11 64 13 223 61 310 93 8 3 20 7
25 9 25 6 103 40 237 103 48 23 91 41 97 41 5 0 11 3 13 8 2 4 32 22 68 41 36
19 68 39 71 44 3 5 8 8 10 6 11 -7 229 146 346 243 98 82 226 208 313 309 65
75 200 253 200 263 0 3 18 32 40 63 22 32 40 63 40 70 0 6 4 13 8 15 11 4 139
262 164 328 54 149 72 204 99 305 17 61 32 121 35 135 2 14 9 48 14 75 5 28
12 70 15 95 3 25 7 52 10 60 24 82 24 636 0 759 -2 11 -7 41 -11 68 -7 51 -11
73 -19 113 -2 14 -7 36 -9 50 -3 14 -10 45 -17 70 -6 25 -12 52 -14 60 -2 8
-8 27 -14 43 -6 15 -9 27 -6 27 2 0 -3 17 -11 37 -9 20 -18 45 -19 55 -2 11
-11 33 -20 50 -8 17 -15 37 -15 45 0 7 -4 21 -9 31 -6 9 -22 44 -37 77 -68
153 -190 374 -242 440 -4 6 -23 33 -42 60 -19 28 -37 52 -40 55 -3 3 -21 25
-40 50 -97 126 -307 335 -441 441 -24 18 -48 37 -54 42 -96 76 -299 200 -443
270 -100 49 -210 99 -222 102 -24 5 -87 29 -95 36 -5 5 -17 9 -27 9 -10 0 -26
4 -36 9 -43 23 -333 97 -417 107 -27 3 -53 8 -57 10 -4 3 -24 6 -45 9 -21 2
-76 9 -123 15 -47 5 -152 13 -235 16 -82 3 -155 7 -162 9 -6 2 -13 2 -15 0z
m152 -1069 c95 -6 145 -12 145 -16 0 -1 20 -4 45 -6 58 -6 247 -58 330 -91
126 -50 327 -160 338 -185 2 -5 10 -8 17 -8 7 0 15 -3 17 -7 2 -5 19 -21 38
-37 77 -62 190 -176 255 -257 38 -47 105 -147 105 -157 0 -6 4 -12 8 -14 7 -2
90 -167 122 -243 46 -107 101 -328 116 -465 18 -169 4 -512 -26 -619 -5 -19
-8 -37 -5 -39 2 -3 -2 -17 -10 -32 -8 -15 -12 -30 -9 -33 3 -3 0 -15 -6 -27
-6 -12 -14 -33 -16 -46 -6 -31 -59 -170 -80 -206 -8 -16 -12 -28 -8 -28 3 0 2
-6 -4 -12 -5 -7 -24 -39 -41 -70 -45 -84 -55 -102 -62 -108 -3 -3 -22 -30 -42
-60 -66 -98 -186 -224 -302 -315 -71 -56 -236 -165 -249 -165 -3 0 -33 -13
-68 -29 -87 -41 -188 -81 -188 -74 0 3 -6 1 -12 -5 -15 -11 -216 -57 -298 -68
-131 -17 -447 -9 -580 15 -219 39 -473 140 -623 247 -26 19 -50 34 -53 34 -3
0 -11 6 -19 13 -7 6 -32 28 -56 47 -72 56 -180 170 -247 257 -34 45 -62 84
-62 88 0 3 -16 28 -35 55 -19 28 -32 50 -28 50 5 0 3 4 -3 8 -23 16 -154 322
-137 322 3 0 0 6 -6 14 -6 8 -11 18 -10 22 1 5 -1 16 -4 24 -3 8 -11 42 -18
75 -7 33 -14 67 -16 75 -2 8 -5 35 -8 60 -2 25 -7 68 -11 95 -14 101 -7 424
11 515 3 14 9 48 15 75 25 129 48 210 87 310 38 95 111 238 125 243 4 2 8 8 8
14 0 10 71 114 115 168 59 73 242 244 325 302 82 58 280 167 303 168 4 0 21 7
37 15 17 9 30 12 30 8 0 -5 4 -3 8 3 6 9 86 36 145 49 10 2 26 6 35 9 15 4 62
13 117 21 11 2 20 4 20 5 0 3 55 8 175 15 69 4 127 9 129 11 2 2 7 2 10 0 3
-2 53 -7 111 -10z"/>
<path d="M44787 26363 c-1 0 -73 -4 -159 -7 -87 -4 -163 -8 -170 -11 -7 -2
-47 -6 -87 -10 -41 -3 -78 -8 -81 -10 -3 -2 -28 -6 -56 -9 -27 -4 -60 -8 -74
-11 -14 -3 -34 -7 -45 -9 -11 -3 -49 -12 -85 -21 -36 -9 -76 -18 -89 -21 -49
-10 -220 -68 -328 -110 -61 -24 -116 -44 -122 -44 -6 0 -11 -5 -11 -12 0 -6
-3 -9 -6 -5 -8 8 -227 -105 -344 -178 -92 -57 -247 -170 -326 -237 -60 -51
-234 -227 -284 -287 -25 -29 -50 -59 -55 -65 -6 -6 -35 -45 -65 -86 -83 -112
-127 -181 -194 -305 -6 -11 -13 -22 -16 -25 -9 -9 -117 -243 -138 -300 -11
-30 -23 -64 -28 -75 -8 -21 -11 -35 -18 -62 -3 -10 -5 -19 -6 -20 -2 -2 -3 -6
-4 -10 -1 -5 -5 -14 -9 -20 -5 -7 -6 -13 -2 -13 3 0 1 -8 -4 -19 -6 -10 -13
-33 -16 -52 -3 -19 -10 -47 -14 -64 -5 -16 -12 -48 -16 -70 -7 -39 -10 -57
-20 -104 -2 -13 -7 -49 -11 -80 -3 -31 -8 -65 -10 -76 -23 -116 -22 -530 1
-715 3 -19 7 -57 10 -85 3 -27 8 -57 10 -65 2 -8 6 -28 9 -44 12 -68 29 -146
48 -216 11 -41 21 -79 22 -85 2 -5 6 -18 10 -27 4 -9 9 -22 10 -30 2 -7 6 -20
9 -28 4 -8 16 -42 28 -75 12 -33 39 -98 60 -143 22 -46 39 -88 39 -92 0 -5 3
-10 8 -12 4 -1 23 -34 42 -72 50 -102 196 -318 291 -432 114 -137 259 -280
395 -389 20 -16 42 -35 48 -40 77 -71 449 -285 621 -357 130 -54 383 -131 505
-154 14 -2 45 -9 70 -14 46 -10 79 -16 160 -25 25 -3 55 -7 66 -9 49 -9 206
-20 301 -20 57 -1 103 -4 103 -8 0 -4 6 -5 13 -2 24 9 92 10 110 2 9 -5 17 -5
17 -1 0 4 28 8 63 9 66 1 229 13 262 19 11 3 40 7 65 10 49 6 68 9 180 31 76
15 95 19 140 30 29 6 40 9 60 16 16 6 99 30 115 34 28 6 186 64 213 78 18 9
33 16 34 15 14 -7 360 175 366 192 2 5 9 9 16 9 7 0 34 16 59 35 25 19 50 35
56 35 5 0 11 3 13 8 2 4 35 31 73 61 39 30 85 69 104 85 62 56 233 230 259
264 l26 34 -45 40 c-24 22 -95 88 -158 147 -63 58 -140 129 -171 158 -31 29
-67 62 -80 73 -14 12 -69 63 -123 113 -55 51 -124 116 -155 145 -60 55 -76 61
-90 36 -17 -31 -168 -177 -252 -244 -265 -211 -515 -315 -860 -358 -72 -8
-379 -8 -450 1 -118 14 -146 18 -160 23 -8 3 -26 8 -40 11 -43 9 -55 11 -55
13 0 1 -11 4 -25 6 -50 9 -208 68 -297 111 -325 156 -595 432 -752 768 -50
106 -104 274 -116 360 -3 17 -7 41 -10 55 -33 153 -38 529 -10 670 3 14 9 50
14 81 31 186 120 408 239 594 62 98 102 146 212 256 159 159 291 247 530 352
19 8 80 29 135 45 89 27 128 36 240 57 145 27 509 27 635 1 14 -3 50 -11 80
-16 30 -6 66 -15 80 -19 14 -5 45 -14 70 -22 25 -7 49 -16 54 -21 6 -4 16 -8
24 -8 8 0 48 -16 90 -36 151 -70 135 -61 277 -153 39 -25 72 -48 75 -51 3 -3
30 -25 60 -50 30 -24 96 -85 146 -136 l91 -91 49 44 c79 73 223 205 263 243
21 19 84 78 141 130 56 52 115 106 130 120 15 14 68 63 118 109 51 46 92 87
92 91 0 18 -235 260 -252 260 -5 0 -6 5 -3 10 3 6 3 10 -2 10 -4 0 -20 10 -34
23 -15 12 -41 33 -59 47 -18 14 -44 35 -59 47 -14 13 -29 23 -32 23 -3 0 -19
11 -35 25 -16 14 -32 25 -36 25 -4 0 -13 6 -20 13 -18 16 -46 34 -78 49 -14 7
-27 15 -30 19 -3 3 -17 12 -32 20 -141 72 -244 122 -298 144 -36 14 -74 30
-85 35 -122 56 -421 133 -650 166 -16 2 -43 6 -60 9 -44 7 -202 18 -262 19
-29 1 -53 3 -53 6 0 4 -129 8 -133 3z"/>
<path d="M318 26247 c-2 -12 -2 -188 -1 -392 2 -203 3 -374 3 -380 0 -5 0
-435 0 -955 0 -520 0 -952 0 -960 0 -8 0 -440 0 -960 0 -520 0 -952 0 -960 0
-8 -1 -178 -3 -378 -2 -315 0 -363 13 -366 34 -10 1220 -4 1226 6 5 7 9 5068
5 5330 l-1 37 -619 0 -619 0 -4 -22z"/>
<path d="M2838 26257 c-2 -7 -3 -1216 -2 -2687 l0 -2675 615 0 614 0 2 1610
c0 886 2 1619 2 1630 l2 20 14 -20 c15 -20 109 -135 314 -384 56 -69 118 -144
136 -166 29 -37 166 -202 206 -250 9 -11 63 -76 119 -145 55 -69 111 -136 122
-149 11 -13 91 -110 176 -215 85 -105 158 -193 161 -196 4 -3 26 -30 51 -60
25 -30 48 -56 53 -58 4 -2 7 -10 7 -17 0 -7 4 -15 9 -17 4 -1 50 -55 102 -118
51 -63 96 -117 99 -120 3 -3 35 -41 70 -85 36 -44 89 -109 119 -145 29 -36 68
-82 85 -104 17 -21 45 -55 62 -75 16 -20 70 -85 119 -146 49 -60 96 -117 104
-126 9 -9 27 -31 41 -49 14 -19 32 -41 40 -50 12 -12 142 -171 192 -235 5 -5
18 -21 29 -35 12 -14 35 -42 52 -64 18 -21 37 -43 42 -50 6 -6 30 -36 55 -66
25 -30 58 -69 73 -87 l29 -31 508 0 508 0 0 2688 1 2689 -615 0 -614 -1 0 -31
c0 -18 -1 -751 -1 -1630 l0 -1597 -27 32 c-15 18 -34 41 -42 51 -8 10 -25 31
-38 45 -12 15 -26 32 -30 37 -11 15 -96 119 -102 125 -3 3 -25 30 -50 60 -25
30 -47 57 -50 60 -3 3 -17 21 -32 40 -14 19 -34 44 -45 55 -10 11 -45 54 -78
95 -33 41 -62 77 -65 80 -3 3 -35 41 -70 85 -36 44 -72 88 -80 99 -8 10 -20
23 -25 30 -6 6 -79 94 -162 196 -281 344 -405 495 -425 519 -64 76 -195 235
-203 249 -5 9 -17 24 -25 32 -9 8 -45 51 -80 95 -36 44 -69 85 -75 91 -5 7
-24 29 -41 50 -35 44 -301 370 -346 424 -16 19 -40 49 -54 65 -14 17 -31 37
-38 45 -7 8 -43 53 -81 100 -37 47 -71 87 -74 90 -4 3 -22 25 -41 50 -19 25
-37 47 -40 50 -3 3 -24 28 -45 55 -22 28 -42 52 -45 55 -3 3 -24 27 -45 55
-22 27 -46 56 -53 63 -7 8 -24 29 -38 47 l-26 34 -513 0 c-380 -1 -514 -4
-517 -12z"/>
<path d="M9042 26229 c2 -21 1 -39 -2 -39 -3 0 -4 -39 -2 -87 2 -49 3 -95 3
-103 0 -8 0 -40 -1 -70 0 -30 0 -79 1 -108 0 -29 -1 -56 -4 -58 -3 -3 -1 -18
3 -34 4 -16 5 -31 2 -35 -3 -3 -5 -41 -3 -83 1 -42 3 -84 2 -92 -2 -113 -2
-290 0 -352 0 -7 -1 -51 -1 -98 -1 -47 -1 -89 0 -95 1 -5 1 -14 0 -20 -1 -8
-1 -51 1 -110 0 -5 -1 -48 -1 -95 -1 -47 -1 -89 0 -95 1 -5 1 -14 0 -20 -1 -8
-1 -51 1 -110 0 -5 -1 -48 -1 -95 -1 -47 -1 -89 0 -95 1 -5 1 -14 0 -20 -1 -8
-1 -51 1 -110 0 -5 -1 -49 -2 -96 -1 -48 1 -91 5 -97 3 -6 2 -13 -2 -16 -5 -3
-6 -25 -3 -48 4 -24 4 -59 1 -78 -3 -19 -3 -47 1 -62 4 -14 4 -29 1 -33 -3 -3
-5 -41 -3 -83 1 -42 3 -84 2 -92 -1 -87 -2 -133 0 -178 0 -29 -1 -56 -4 -58
-3 -3 -1 -18 3 -34 4 -16 5 -31 2 -35 -3 -3 -5 -41 -3 -83 1 -42 3 -84 2 -92
-1 -87 -2 -133 0 -178 0 -29 -1 -56 -4 -58 -3 -3 -1 -18 3 -34 4 -16 5 -31 2
-35 -3 -3 -5 -41 -3 -83 1 -42 3 -84 2 -92 -1 -87 -2 -133 0 -178 0 -29 -1
-56 -4 -58 -3 -3 -1 -18 3 -34 4 -16 5 -31 2 -35 -3 -3 -5 -41 -3 -83 1 -42 3
-84 2 -92 -1 -87 -2 -133 0 -178 0 -29 -1 -56 -4 -58 -3 -3 -1 -18 3 -34 4
-16 5 -31 2 -35 -3 -3 -5 -41 -3 -83 1 -42 3 -84 2 -92 -2 -113 -2 -290 0
-352 0 -7 0 -51 0 -98 0 -47 -1 -94 -1 -105 0 -11 0 -48 -1 -82 0 -34 2 -67 6
-72 3 -6 2 -11 -3 -11 -5 0 -7 -14 -3 -32 l7 -33 612 -1 612 -1 0 1631 c1
1425 2 1629 15 1612 8 -11 26 -32 40 -48 14 -15 25 -32 25 -38 0 -5 4 -10 8
-10 5 0 38 -37 74 -82 36 -46 74 -93 84 -104 11 -12 33 -39 49 -60 17 -21 40
-49 52 -63 13 -15 26 -30 31 -36 20 -26 190 -233 209 -255 11 -14 67 -81 123
-150 115 -142 158 -195 180 -219 8 -9 33 -39 55 -66 22 -28 43 -51 47 -53 5
-2 8 -10 8 -18 0 -8 4 -14 8 -14 5 0 36 -35 70 -77 33 -43 69 -87 79 -98 58
-64 113 -135 113 -144 0 -6 4 -11 8 -11 5 0 40 -39 79 -87 106 -132 216 -265
257 -313 11 -14 37 -45 56 -70 19 -25 45 -56 56 -70 70 -82 102 -120 124 -149
14 -18 30 -38 35 -44 20 -23 160 -193 195 -236 19 -24 40 -48 45 -55 6 -6 71
-85 145 -176 74 -91 137 -167 140 -170 3 -3 65 -78 137 -166 l132 -162 511 0
510 0 0 2688 0 2689 -614 0 -614 0 0 -1612 c-1 -887 -1 -1621 -2 -1632 0 -18
-2 -17 -17 5 -9 14 -22 30 -28 35 -6 6 -27 30 -46 55 -18 25 -39 50 -45 55 -6
6 -36 42 -67 80 -30 39 -103 129 -162 200 -58 72 -118 145 -133 163 -15 18
-35 43 -46 55 -10 12 -35 42 -55 67 -20 25 -39 47 -43 48 -5 2 -8 8 -8 13 0 5
-16 25 -35 45 -19 19 -35 38 -35 42 0 4 -13 21 -28 37 -15 17 -72 84 -126 150
-53 66 -105 129 -114 140 -10 11 -46 56 -82 100 -35 44 -67 82 -70 85 -3 3
-44 52 -90 110 -104 129 -112 139 -125 154 -6 6 -30 36 -55 66 -25 30 -47 57
-50 60 -3 3 -43 52 -90 110 -46 58 -91 112 -100 120 -8 8 -19 23 -25 32 -8 12
-351 433 -444 543 -9 11 -90 110 -180 220 -89 110 -171 209 -180 220 -9 11
-57 69 -105 127 l-88 107 -515 0 -515 0 4 -40z"/>
<path d="M21724 23582 l1 -2687 583 -2 582 -1 0 1576 0 1577 27 -40 c15 -22
27 -43 26 -47 -1 -3 4 -12 12 -18 8 -7 15 -19 15 -26 0 -8 4 -14 9 -14 5 0 11
-8 15 -17 3 -10 31 -58 62 -108 31 -49 68 -110 82 -135 14 -25 49 -82 79 -128
29 -45 53 -85 53 -88 0 -3 13 -24 28 -47 16 -23 32 -49 35 -57 4 -8 27 -46 52
-85 24 -38 44 -75 45 -82 0 -6 4 -13 9 -15 10 -4 91 -136 91 -149 0 -5 5 -9
10 -9 6 0 10 -4 10 -9 0 -4 32 -60 70 -122 108 -175 125 -203 121 -208 -1 -2
1 -7 6 -10 5 -3 56 -82 113 -176 56 -93 166 -273 243 -400 77 -126 147 -243
156 -259 9 -17 24 -39 34 -50 9 -11 17 -23 17 -27 0 -4 27 -51 60 -104 33 -53
60 -100 60 -106 0 -5 4 -9 9 -9 5 0 12 -9 16 -19 6 -19 18 -20 288 -20 l282 0
22 34 c12 18 24 43 28 54 3 12 11 21 16 21 5 0 9 4 9 9 0 6 25 50 55 100 30
50 55 94 55 99 0 5 9 17 20 27 11 10 20 22 20 26 0 5 18 38 40 74 22 36 40 68
40 71 0 3 10 20 23 37 12 18 27 41 33 52 36 66 68 121 73 125 3 3 11 14 17 25
42 77 350 591 356 593 5 2 8 8 8 14 0 5 21 44 47 86 25 42 51 86 57 97 42 76
131 221 138 223 4 2 8 10 8 17 0 8 6 20 13 27 7 7 18 24 24 38 7 14 24 43 38
65 13 22 29 49 35 60 6 11 39 67 75 125 35 58 82 137 105 175 22 39 58 99 80
135 22 36 46 77 52 93 7 15 16 27 20 27 4 0 8 5 8 11 0 6 13 30 30 53 16 24
26 46 23 50 -4 3 -1 6 4 6 8 0 12 -275 13 -937 2 -990 6 -2264 9 -2274 0 -4
262 -7 581 -7 l580 0 0 36 c1 75 -4 2125 -11 4549 l-2 792 -511 -1 -510 0 -28
-45 c-15 -24 -28 -47 -28 -50 0 -4 -6 -14 -14 -22 -7 -9 -24 -36 -37 -61 -13
-25 -27 -47 -30 -50 -3 -3 -9 -12 -12 -20 -4 -8 -17 -31 -28 -50 -12 -19 -60
-100 -107 -180 -47 -80 -90 -146 -94 -148 -4 -2 -8 -10 -8 -19 0 -8 -11 -29
-24 -46 -13 -18 -42 -66 -65 -107 -23 -41 -77 -133 -120 -205 -43 -71 -129
-215 -190 -320 -62 -104 -120 -201 -129 -215 -9 -14 -15 -27 -13 -29 1 -2 -1
-7 -7 -10 -5 -3 -15 -18 -23 -33 -8 -15 -34 -60 -58 -100 -41 -68 -175 -294
-393 -663 -49 -82 -93 -157 -98 -165 -11 -18 -172 -289 -216 -363 -17 -28 -68
-115 -114 -192 -46 -77 -89 -151 -97 -165 -18 -35 -51 -76 -55 -70 -4 5 -133
222 -168 281 -16 29 -131 218 -168 277 -12 20 -30 52 -39 70 -9 17 -20 32 -25
32 -4 0 -8 5 -8 11 0 6 -32 63 -72 127 -39 64 -79 131 -88 147 -9 17 -36 60
-58 98 -23 37 -42 72 -42 77 0 6 -3 10 -7 10 -5 0 -16 15 -27 33 -10 17 -26
46 -36 62 -75 130 -266 441 -272 443 -4 2 -8 8 -8 14 0 6 -28 56 -62 112 -35
55 -70 113 -78 127 -51 88 -99 168 -160 267 -39 63 -70 116 -70 119 0 2 -11
19 -25 37 -14 18 -25 35 -25 38 0 7 -206 349 -220 365 -5 7 -10 15 -10 18 0 3
-22 41 -50 85 -27 44 -50 84 -50 90 0 5 -4 10 -10 10 -5 0 -10 4 -10 9 0 5
-22 46 -50 90 -27 44 -50 83 -50 86 0 3 -5 11 -11 18 -5 7 -32 48 -58 92 l-47
80 -515 2 -516 1 1 -2686z"/>
<path d="M30736 26242 c-8 -15 -40 -85 -71 -157 -32 -71 -73 -163 -91 -203
-19 -41 -34 -75 -34 -77 0 -3 -14 -35 -31 -72 -64 -140 -149 -334 -149 -341 0
-5 -6 -14 -12 -21 -7 -6 -13 -15 -14 -19 -1 -10 -13 -40 -36 -92 -11 -25 -49
-110 -85 -190 -35 -80 -70 -157 -78 -172 -8 -14 -15 -33 -15 -42 0 -9 -4 -16
-10 -16 -5 0 -10 -6 -10 -13 0 -7 -39 -98 -86 -202 -48 -105 -87 -196 -87
-202 0 -7 -4 -13 -9 -13 -4 0 -8 -6 -8 -14 0 -8 -11 -36 -24 -63 -14 -26 -52
-111 -86 -188 -34 -77 -70 -158 -80 -180 -10 -22 -33 -71 -50 -110 -18 -38
-33 -74 -34 -80 -3 -10 -32 -76 -81 -180 -13 -27 -49 -108 -80 -180 -32 -71
-68 -152 -80 -180 -13 -27 -51 -113 -85 -190 -34 -77 -70 -158 -80 -180 -10
-22 -37 -83 -60 -135 -23 -52 -52 -117 -65 -145 -12 -27 -32 -72 -44 -100 -13
-27 -28 -63 -36 -80 -7 -16 -43 -97 -80 -180 -37 -82 -80 -178 -96 -213 -16
-35 -29 -65 -29 -67 0 -5 -38 -89 -96 -213 -19 -40 -34 -74 -34 -77 0 -2 -18
-43 -40 -90 -22 -47 -40 -88 -40 -90 0 -2 -15 -36 -34 -77 -18 -40 -48 -107
-66 -148 -18 -41 -47 -107 -66 -147 -18 -40 -36 -84 -40 -98 -3 -14 -10 -25
-15 -25 -4 0 -11 -16 -15 -35 -3 -19 -10 -35 -16 -35 -5 0 -7 -4 -4 -9 4 -5
273 -9 639 -9 l632 0 43 102 c23 55 49 119 59 141 9 22 17 42 18 45 1 3 9 23
19 45 10 22 35 83 56 135 21 52 46 113 56 135 10 22 18 42 19 45 3 10 43 104
65 155 17 38 105 250 106 255 0 3 6 18 12 33 7 16 12 32 12 37 0 5 8 13 18 18
9 4 572 8 1251 8 1084 -1 1235 -3 1242 -16 13 -27 59 -130 59 -135 0 -6 126
-310 150 -362 11 -24 20 -49 20 -56 0 -7 4 -17 9 -22 5 -6 21 -41 36 -80 15
-38 33 -83 41 -100 7 -16 36 -86 64 -155 28 -69 60 -144 71 -167 10 -24 19
-47 19 -52 0 -5 264 -9 650 -9 607 0 650 1 650 17 0 9 -4 21 -8 27 -5 5 -16
27 -25 49 -8 22 -29 69 -45 105 -16 36 -40 88 -52 115 -12 28 -31 70 -42 95
-11 25 -30 68 -43 95 -12 28 -33 73 -45 100 -12 28 -35 78 -51 113 -16 35 -29
65 -29 67 0 3 -13 33 -29 67 -78 172 -114 252 -116 258 0 3 -10 25 -22 50 -11
25 -49 108 -83 185 -34 77 -74 165 -87 195 -14 30 -51 114 -83 185 -32 72 -74
165 -94 208 -20 43 -36 85 -36 93 0 8 -4 14 -10 14 -5 0 -10 5 -10 11 0 6 -16
45 -35 86 -19 41 -35 77 -35 80 0 2 -13 32 -29 66 -16 34 -38 82 -49 107 -22
50 -142 319 -174 390 -11 25 -31 70 -45 100 -24 53 -45 100 -48 110 -2 7 -38
87 -68 151 -40 86 -75 165 -103 232 -15 34 -41 92 -60 130 -18 37 -33 68 -32
70 1 2 -10 27 -67 152 -12 28 -32 71 -44 98 -11 26 -31 68 -42 95 -12 26 -57
128 -101 227 -44 99 -91 205 -105 235 -94 208 -110 243 -173 385 -32 72 -67
151 -79 178 -11 26 -30 67 -41 92 -11 25 -29 64 -39 88 -20 42 -61 135 -96
214 l-18 41 -614 0 -613 1 -14 -27z m638 -1244 c8 -18 51 -123 96 -233 45
-110 91 -222 103 -249 12 -27 22 -52 23 -55 1 -6 27 -68 44 -106 5 -11 32 -76
60 -145 52 -127 79 -192 111 -267 11 -24 19 -45 19 -48 0 -6 37 -92 52 -119 5
-10 11 -26 13 -35 2 -9 58 -146 124 -304 67 -158 121 -290 121 -293 0 -3 11
-29 24 -57 13 -29 27 -62 31 -74 l6 -23 -850 0 c-468 0 -851 2 -851 4 0 3 28
70 50 121 40 90 50 115 50 120 0 3 9 27 21 53 11 26 24 56 29 67 4 11 15 36
23 55 8 19 25 60 37 90 12 30 33 79 46 108 13 29 24 55 24 58 0 3 6 20 14 37
23 51 78 181 80 192 4 14 19 50 50 117 14 31 26 60 26 63 0 4 6 21 14 38 8 18
49 115 91 217 43 102 86 204 96 227 10 23 19 49 19 57 0 9 5 16 10 16 6 0 10
5 10 12 0 19 154 388 162 388 4 0 14 -15 22 -32z"/>
<path d="M35959 26247 c12 -30 60 -145 76 -182 66 -146 105 -236 105 -242 0
-3 11 -29 24 -57 27 -59 44 -96 81 -186 15 -36 35 -81 43 -100 9 -19 16 -37
17 -40 1 -3 10 -23 19 -45 32 -73 50 -113 126 -290 29 -66 58 -133 65 -150 8
-16 35 -79 60 -140 26 -60 53 -123 61 -140 44 -99 136 -312 138 -320 1 -5 14
-36 29 -68 15 -32 27 -59 27 -62 0 -2 14 -34 31 -71 17 -37 32 -72 34 -78 1
-6 14 -38 29 -71 15 -33 37 -82 48 -110 12 -27 29 -68 39 -90 62 -141 77 -176
114 -265 15 -36 35 -83 45 -105 10 -22 48 -110 85 -195 36 -85 80 -186 97
-225 17 -38 37 -86 46 -105 8 -19 20 -48 27 -65 7 -16 22 -51 34 -77 25 -56
44 -101 45 -108 1 -3 9 -21 18 -40 9 -19 53 -120 98 -225 45 -104 88 -203 96
-219 8 -16 14 -33 14 -37 0 -4 13 -36 29 -71 16 -35 36 -79 44 -98 19 -44 99
-231 144 -335 19 -44 41 -93 48 -110 13 -28 103 -239 127 -295 5 -14 40 -95
78 -180 l67 -155 616 -1 616 -2 7 22 c4 11 24 58 45 103 22 45 39 85 39 88 0
3 10 27 21 53 19 40 58 129 102 232 6 14 11 27 11 30 1 3 14 31 29 64 15 32
27 60 27 62 0 2 18 46 41 96 22 51 44 102 49 113 12 28 34 77 145 335 53 124
107 245 118 270 11 25 22 54 24 64 2 11 10 27 18 36 8 9 15 23 15 31 0 8 7 25
16 37 8 12 13 22 10 22 -4 0 37 96 79 185 8 17 26 59 41 95 14 36 35 84 45
108 48 108 60 136 119 272 34 80 73 169 86 198 13 29 24 55 24 57 0 2 11 28
24 57 41 92 63 141 90 206 15 34 40 92 56 128 17 35 30 67 30 69 0 2 14 34 30
70 17 36 30 68 30 71 0 3 11 29 24 57 32 68 55 121 106 242 23 55 47 106 52
113 6 6 8 12 5 12 -3 0 17 51 44 113 28 61 56 126 64 142 7 17 27 64 45 105
18 41 40 93 50 115 49 110 100 235 100 244 0 6 5 11 10 11 6 0 10 8 10 18 0
10 8 29 17 42 10 14 16 25 14 25 -2 0 3 16 11 35 52 124 101 235 108 249 20
37 90 207 90 219 0 6 4 12 10 12 5 0 9 3 8 8 -1 4 4 19 10 35 7 15 17 39 24
55 6 15 11 30 10 35 -1 4 3 7 8 7 6 0 10 9 10 19 0 11 4 22 9 25 5 3 12 17 15
30 3 13 21 57 39 97 38 84 57 128 57 134 0 2 -278 3 -617 2 l-617 -2 -37 -85
c-20 -47 -81 -186 -134 -310 -54 -124 -106 -244 -116 -267 -19 -41 -40 -92
-44 -103 -3 -9 -55 -130 -82 -190 -9 -19 -23 -53 -33 -75 -10 -22 -24 -56 -33
-75 -8 -19 -43 -100 -77 -180 -34 -80 -67 -158 -75 -175 -13 -27 -58 -132
-107 -245 -10 -25 -23 -54 -28 -65 -5 -11 -25 -58 -45 -105 -20 -47 -43 -98
-50 -115 -7 -16 -41 -95 -75 -175 -34 -80 -75 -173 -91 -208 -16 -34 -29 -65
-29 -68 0 -3 -8 -24 -19 -47 -23 -52 -127 -291 -216 -497 -92 -214 -90 -208
-119 -273 -14 -32 -26 -60 -26 -63 0 -5 -25 -63 -66 -151 -13 -28 -24 -54 -24
-57 0 -2 -13 -34 -30 -69 -16 -36 -30 -72 -30 -81 0 -9 -4 -16 -8 -16 -4 0
-16 -22 -26 -49 -9 -27 -23 -57 -31 -67 -13 -18 -14 -18 -20 1 -4 11 -13 34
-20 50 -7 17 -32 75 -55 130 -49 117 -67 159 -86 200 -29 64 -126 291 -128
300 -1 6 -12 33 -25 60 -13 28 -24 55 -25 60 -5 17 -46 109 -62 138 -8 15 -13
27 -10 27 3 0 -9 30 -26 68 -16 37 -36 81 -43 97 -129 304 -132 312 -133 329
0 5 -5 12 -11 16 -6 3 -13 15 -15 26 -4 18 -36 93 -77 180 -10 23 -19 44 -19
48 0 4 -12 33 -26 64 -26 57 -46 103 -49 112 -1 3 -9 22 -18 44 -9 21 -17 40
-17 42 0 2 -12 29 -27 61 -14 32 -26 64 -26 71 0 6 -3 12 -6 12 -3 0 -11 12
-17 28 -58 141 -83 200 -110 256 -8 16 -14 33 -14 38 0 5 -11 33 -24 61 -30
64 -40 90 -38 100 1 4 -2 7 -8 7 -5 0 -10 6 -10 13 -1 6 -9 30 -20 52 -11 22
-19 43 -20 47 0 4 -11 31 -24 60 -57 128 -216 506 -216 516 0 5 -4 12 -10 14
-5 2 -11 12 -13 23 -2 11 -16 46 -30 79 -15 32 -27 60 -27 62 0 2 -9 23 -19
47 -47 104 -111 257 -111 266 0 6 -242 9 -674 10 l-675 0 8 -22z"/>
<path d="M35298 22325 c-1 -2 -30 -5 -64 -8 -145 -12 -321 -82 -409 -162 -7
-5 -27 -24 -46 -40 -101 -89 -179 -233 -204 -375 -7 -39 -17 -119 -16 -135 3
-95 10 -151 36 -265 9 -43 62 -152 99 -205 104 -148 283 -258 476 -293 53 -10
238 -8 290 2 124 25 205 61 301 133 189 142 285 342 287 596 0 62 -6 142 -14
180 -14 68 -60 197 -74 207 -4 3 -13 15 -19 28 -63 119 -281 277 -423 306 -13
3 -34 7 -48 10 -14 3 -52 8 -85 12 -33 3 -65 7 -72 9 -6 2 -13 2 -15 0z"/>
</g>
</svg>
