<svg width="368" height="232" viewBox="0 0 368 232" fill="none" xmlns="http://www.w3.org/2000/svg">
<circle cx="362.808" cy="28.1923" r="5.19231" fill="#2A79C2"/>
<circle cx="338" cy="28.1923" r="5.19231" fill="#2A79C2"/>
<circle cx="313.192" cy="28.1923" r="5.19231" fill="#2A79C2"/>
<circle cx="362.808" cy="53.0009" r="5.19231" fill="#2A79C2"/>
<circle cx="338" cy="53.0009" r="5.19231" fill="#2A79C2"/>
<circle cx="313.192" cy="53.0009" r="5.19231" fill="#2A79C2"/>
<circle cx="362.808" cy="77.8095" r="5.19231" fill="#2A79C2"/>
<circle cx="338" cy="77.8095" r="5.19231" fill="#2A79C2"/>
<circle cx="313.192" cy="77.8095" r="5.19231" fill="#2A79C2"/>
<circle cx="285.808" cy="28.1923" r="5.19231" fill="#2A79C2"/>
<circle cx="261" cy="28.1923" r="5.19231" fill="#2A79C2"/>
<circle cx="236.192" cy="28.1923" r="5.19231" fill="#2A79C2"/>
<circle cx="285.808" cy="53.0009" r="5.19231" fill="#2A79C2"/>
<circle cx="261" cy="53.0009" r="5.19231" fill="#2A79C2"/>
<circle cx="236.192" cy="53.0009" r="5.19231" fill="#2A79C2"/>
<circle cx="362.808" cy="6.0009" r="5.19231" fill="#2A79C2"/>
<circle cx="338" cy="6.0009" r="5.19231" fill="#2A79C2"/>
<circle cx="313.192" cy="6.0009" r="5.19231" fill="#2A79C2"/>
<circle cx="285.808" cy="6.0009" r="5.19231" fill="#2A79C2"/>
<circle cx="261" cy="6.0009" r="5.19231" fill="#2A79C2"/>
<circle cx="236.192" cy="6.0009" r="5.19231" fill="#2A79C2"/>
<circle cx="285.808" cy="77.8095" r="5.19231" fill="#2A79C2"/>
<circle cx="261" cy="77.8095" r="5.19231" fill="#2A79C2"/>
<circle cx="236.192" cy="77.8095" r="5.19231" fill="#2A79C2"/>
<circle cx="362.808" cy="102.192" r="5.19231" fill="#2A79C2"/>
<circle cx="338" cy="102.192" r="5.19231" fill="#2A79C2"/>
<circle cx="313.192" cy="102.192" r="5.19231" fill="#2A79C2"/>
<circle cx="362.808" cy="127.001" r="5.19231" fill="#2A79C2"/>
<circle cx="338" cy="127.001" r="5.19231" fill="#2A79C2"/>
<circle cx="313.192" cy="127.001" r="5.19231" fill="#2A79C2"/>
<circle cx="362.808" cy="151.809" r="5.19231" fill="#2A79C2"/>
<circle cx="338" cy="151.809" r="5.19231" fill="#2A79C2"/>
<circle cx="313.192" cy="151.809" r="5.19231" fill="#2A79C2"/>
<circle cx="285.808" cy="102.192" r="5.19231" fill="#2A79C2"/>
<circle cx="261" cy="102.192" r="5.19231" fill="#2A79C2"/>
<circle cx="236.192" cy="102.192" r="5.19231" fill="#2A79C2"/>
<circle cx="285.808" cy="127.001" r="5.19231" fill="#2A79C2"/>
<circle cx="261" cy="127.001" r="5.19231" fill="#2A79C2"/>
<circle cx="236.192" cy="127.001" r="5.19231" fill="#2A79C2"/>
<circle cx="285.808" cy="151.809" r="5.19231" fill="#2A79C2"/>
<circle cx="261" cy="151.809" r="5.19231" fill="#2A79C2"/>
<circle cx="236.192" cy="151.809" r="5.19231" fill="#2A79C2"/>
<circle cx="362.808" cy="176.192" r="5.19231" fill="#2A79C2"/>
<circle cx="338" cy="176.192" r="5.19231" fill="#2A79C2"/>
<circle cx="313.192" cy="176.192" r="5.19231" fill="#2A79C2"/>
<circle cx="362.808" cy="201.001" r="5.19231" fill="#2A79C2"/>
<circle cx="338" cy="201.001" r="5.19231" fill="#2A79C2"/>
<circle cx="313.192" cy="201.001" r="5.19231" fill="#2A79C2"/>
<circle cx="362.808" cy="225.809" r="5.19231" fill="#2A79C2"/>
<circle cx="338" cy="225.809" r="5.19231" fill="#2A79C2"/>
<circle cx="313.192" cy="225.809" r="5.19231" fill="#2A79C2"/>
<circle cx="285.808" cy="176.192" r="5.19231" fill="#2A79C2"/>
<circle cx="261" cy="176.192" r="5.19231" fill="#2A79C2"/>
<circle cx="236.192" cy="176.192" r="5.19231" fill="#2A79C2"/>
<circle cx="285.808" cy="201.001" r="5.19231" fill="#2A79C2"/>
<circle cx="261" cy="201.001" r="5.19231" fill="#2A79C2"/>
<circle cx="236.192" cy="201.001" r="5.19231" fill="#2A79C2"/>
<circle cx="285.808" cy="225.809" r="5.19231" fill="#2A79C2"/>
<circle cx="261" cy="225.809" r="5.19231" fill="#2A79C2"/>
<circle cx="236.192" cy="225.809" r="5.19231" fill="#2A79C2"/>
<circle cx="54.8077" cy="27.3837" r="5.19231" fill="#2A79C2"/>
<circle cx="30" cy="27.3837" r="5.19231" fill="#2A79C2"/>
<circle cx="5.19231" cy="27.3837" r="5.19231" fill="#2A79C2"/>
<circle cx="54.8077" cy="52.1923" r="5.19231" fill="#2A79C2"/>
<circle cx="30" cy="52.1923" r="5.19231" fill="#2A79C2"/>
<circle cx="5.19231" cy="52.1923" r="5.19231" fill="#2A79C2"/>
<circle cx="54.8077" cy="5.19231" r="5.19231" fill="#2A79C2"/>
<circle cx="30" cy="5.19231" r="5.19231" fill="#2A79C2"/>
<circle cx="5.19231" cy="5.19231" r="5.19231" fill="#2A79C2"/>
<circle cx="54.8077" cy="77.0009" r="5.19231" fill="#2A79C2"/>
<circle cx="30" cy="77.0009" r="5.19231" fill="#2A79C2"/>
<circle cx="5.19231" cy="77.0009" r="5.19231" fill="#2A79C2"/>
<circle cx="54.8077" cy="101.384" r="5.19231" fill="#2A79C2"/>
<circle cx="30" cy="101.384" r="5.19231" fill="#2A79C2"/>
<circle cx="5.19231" cy="101.384" r="5.19231" fill="#2A79C2"/>
<circle cx="54.8077" cy="126.192" r="5.19231" fill="#2A79C2"/>
<circle cx="30" cy="126.192" r="5.19231" fill="#2A79C2"/>
<circle cx="5.19231" cy="126.192" r="5.19231" fill="#2A79C2"/>
<circle cx="54.8077" cy="151.001" r="5.19231" fill="#2A79C2"/>
<circle cx="30" cy="151.001" r="5.19231" fill="#2A79C2"/>
<circle cx="5.19231" cy="151.001" r="5.19231" fill="#2A79C2"/>
<circle cx="54.8077" cy="175.384" r="5.19231" fill="#2A79C2"/>
<circle cx="30" cy="175.384" r="5.19231" fill="#2A79C2"/>
<circle cx="5.19231" cy="175.384" r="5.19231" fill="#2A79C2"/>
<circle cx="54.8077" cy="200.192" r="5.19231" fill="#2A79C2"/>
<circle cx="30" cy="200.192" r="5.19231" fill="#2A79C2"/>
<circle cx="5.19231" cy="200.192" r="5.19231" fill="#2A79C2"/>
<circle cx="54.8077" cy="225.001" r="5.19231" fill="#2A79C2"/>
<circle cx="30" cy="225.001" r="5.19231" fill="#2A79C2"/>
<circle cx="5.19231" cy="225.001" r="5.19231" fill="#2A79C2"/>
<circle cx="208.808" cy="28.3837" r="5.19231" fill="#2A79C2"/>
<circle cx="184" cy="28.3837" r="5.19231" fill="#2A79C2"/>
<circle cx="159.192" cy="28.3837" r="5.19231" fill="#2A79C2"/>
<circle cx="208.808" cy="53.1923" r="5.19231" fill="#2A79C2"/>
<circle cx="184" cy="53.1923" r="5.19231" fill="#2A79C2"/>
<circle cx="159.192" cy="53.1923" r="5.19231" fill="#2A79C2"/>
<circle cx="208.808" cy="78.0009" r="5.19231" fill="#2A79C2"/>
<circle cx="184" cy="78.0009" r="5.19231" fill="#2A79C2"/>
<circle cx="159.192" cy="78.0009" r="5.19231" fill="#2A79C2"/>
<circle cx="131.808" cy="28.3837" r="5.19231" fill="#2A79C2"/>
<circle cx="107" cy="28.3837" r="5.19231" fill="#2A79C2"/>
<circle cx="82.1923" cy="28.3837" r="5.19231" fill="#2A79C2"/>
<circle cx="131.808" cy="53.1923" r="5.19231" fill="#2A79C2"/>
<circle cx="107" cy="53.1923" r="5.19231" fill="#2A79C2"/>
<circle cx="82.1923" cy="53.1923" r="5.19231" fill="#2A79C2"/>
<circle cx="208.808" cy="6.19231" r="5.19231" fill="#2A79C2"/>
<circle cx="184" cy="6.19231" r="5.19231" fill="#2A79C2"/>
<circle cx="159.192" cy="6.19231" r="5.19231" fill="#2A79C2"/>
<circle cx="131.808" cy="6.19231" r="5.19231" fill="#2A79C2"/>
<circle cx="107" cy="6.19231" r="5.19231" fill="#2A79C2"/>
<circle cx="82.1923" cy="6.19231" r="5.19231" fill="#2A79C2"/>
<circle cx="131.808" cy="78.0009" r="5.19231" fill="#2A79C2"/>
<circle cx="107" cy="78.0009" r="5.19231" fill="#2A79C2"/>
<circle cx="82.1923" cy="78.0009" r="5.19231" fill="#2A79C2"/>
<circle cx="208.808" cy="102.384" r="5.19231" fill="#2A79C2"/>
<circle cx="184" cy="102.384" r="5.19231" fill="#2A79C2"/>
<circle cx="159.192" cy="102.384" r="5.19231" fill="#2A79C2"/>
<circle cx="208.808" cy="127.192" r="5.19231" fill="#2A79C2"/>
<circle cx="184" cy="127.192" r="5.19231" fill="#2A79C2"/>
<circle cx="159.192" cy="127.192" r="5.19231" fill="#2A79C2"/>
<circle cx="208.808" cy="152.001" r="5.19231" fill="#2A79C2"/>
<circle cx="184" cy="152.001" r="5.19231" fill="#2A79C2"/>
<circle cx="159.192" cy="152.001" r="5.19231" fill="#2A79C2"/>
<circle cx="131.808" cy="102.384" r="5.19231" fill="#2A79C2"/>
<circle cx="107" cy="102.384" r="5.19231" fill="#2A79C2"/>
<circle cx="82.1923" cy="102.384" r="5.19231" fill="#2A79C2"/>
<circle cx="131.808" cy="127.192" r="5.19231" fill="#2A79C2"/>
<circle cx="107" cy="127.192" r="5.19231" fill="#2A79C2"/>
<circle cx="82.1923" cy="127.192" r="5.19231" fill="#2A79C2"/>
<circle cx="131.808" cy="152.001" r="5.19231" fill="#2A79C2"/>
<circle cx="107" cy="152.001" r="5.19231" fill="#2A79C2"/>
<circle cx="82.1923" cy="152.001" r="5.19231" fill="#2A79C2"/>
<circle cx="208.808" cy="176.384" r="5.19231" fill="#2A79C2"/>
<circle cx="184" cy="176.384" r="5.19231" fill="#2A79C2"/>
<circle cx="159.192" cy="176.384" r="5.19231" fill="#2A79C2"/>
<circle cx="208.808" cy="201.192" r="5.19231" fill="#2A79C2"/>
<circle cx="184" cy="201.192" r="5.19231" fill="#2A79C2"/>
<circle cx="159.192" cy="201.192" r="5.19231" fill="#2A79C2"/>
<circle cx="208.808" cy="226.001" r="5.19231" fill="#2A79C2"/>
<circle cx="184" cy="226.001" r="5.19231" fill="#2A79C2"/>
<circle cx="159.192" cy="226.001" r="5.19231" fill="#2A79C2"/>
<circle cx="131.808" cy="176.384" r="5.19231" fill="#2A79C2"/>
<circle cx="107" cy="176.384" r="5.19231" fill="#2A79C2"/>
<circle cx="82.1923" cy="176.384" r="5.19231" fill="#2A79C2"/>
<circle cx="131.808" cy="201.192" r="5.19231" fill="#2A79C2"/>
<circle cx="107" cy="201.192" r="5.19231" fill="#2A79C2"/>
<circle cx="82.1923" cy="201.192" r="5.19231" fill="#2A79C2"/>
<circle cx="131.808" cy="226.001" r="5.19231" fill="#2A79C2"/>
<circle cx="107" cy="226.001" r="5.19231" fill="#2A79C2"/>
<circle cx="82.1923" cy="226.001" r="5.19231" fill="#2A79C2"/>
</svg>
