<svg width="147" height="18" viewBox="0 0 147 18" fill="none" xmlns="http://www.w3.org/2000/svg">
<path d="M0.992 17.2109V0.410936H4.88V17.2109H0.992ZM8.867 17.2109V0.410936H12.083L21.995 12.5069H20.435V0.410936H24.275V17.2109H21.083L11.147 5.11494H12.707V17.2109H8.867ZM28.2498 17.2109V0.410936H31.4658L41.3778 12.5069H39.8178V0.410936H43.6578V17.2109H40.4658L30.5298 5.11494H32.0898V17.2109H28.2498ZM55.7926 17.4989C54.4646 17.4989 53.2326 17.2829 52.0966 16.8509C50.9766 16.4189 50.0006 15.8109 49.1686 15.0269C48.3526 14.2429 47.7126 13.3229 47.2486 12.2669C46.8006 11.2109 46.5766 10.0589 46.5766 8.81094C46.5766 7.56294 46.8006 6.41094 47.2486 5.35494C47.7126 4.29894 48.3606 3.37894 49.1926 2.59494C50.0246 1.81094 51.0006 1.20294 52.1206 0.770936C53.2406 0.338937 54.4566 0.122937 55.7686 0.122937C57.0966 0.122937 58.3126 0.338937 59.4166 0.770936C60.5366 1.20294 61.5046 1.81094 62.3206 2.59494C63.1526 3.37894 63.8006 4.29894 64.2646 5.35494C64.7286 6.39494 64.9606 7.54694 64.9606 8.81094C64.9606 10.0589 64.7286 11.2189 64.2646 12.2909C63.8006 13.3469 63.1526 14.2669 62.3206 15.0509C61.5046 15.8189 60.5366 16.4189 59.4166 16.8509C58.3126 17.2829 57.1046 17.4989 55.7926 17.4989ZM55.7686 14.1869C56.5206 14.1869 57.2086 14.0589 57.8326 13.8029C58.4726 13.5469 59.0326 13.1789 59.5126 12.6989C59.9926 12.2189 60.3606 11.6509 60.6166 10.9949C60.8886 10.3389 61.0246 9.61094 61.0246 8.81094C61.0246 8.01094 60.8886 7.28294 60.6166 6.62694C60.3606 5.97094 59.9926 5.40294 59.5126 4.92294C59.0486 4.44294 58.4966 4.07494 57.8566 3.81894C57.2166 3.56294 56.5206 3.43494 55.7686 3.43494C55.0166 3.43494 54.3206 3.56294 53.6806 3.81894C53.0566 4.07494 52.5046 4.44294 52.0246 4.92294C51.5446 5.40294 51.1686 5.97094 50.8966 6.62694C50.6406 7.28294 50.5126 8.01094 50.5126 8.81094C50.5126 9.59494 50.6406 10.3229 50.8966 10.9949C51.1686 11.6509 51.5366 12.2189 52.0006 12.6989C52.4806 13.1789 53.0406 13.5469 53.6806 13.8029C54.3206 14.0589 55.0166 14.1869 55.7686 14.1869ZM67.8826 17.2109V0.410936H71.0986L78.2506 12.2669H76.5466L83.5786 0.410936H86.7706L86.8186 17.2109H83.1706L83.1466 6.00294H83.8186L78.2026 15.4349H76.4506L70.7146 6.00294H71.5306V17.2109H67.8826ZM88.5965 17.2109L96.0845 0.410936H99.9245L107.437 17.2109H103.357L97.2125 2.37894H98.7485L92.5805 17.2109H88.5965ZM92.3405 13.6109L93.3725 10.6589H102.013L103.069 13.6109H92.3405Z" fill="white"/>
<path d="M110.332 17.4029C109.692 17.4029 109.14 17.1869 108.676 16.7549C108.228 16.3069 108.004 15.7389 108.004 15.0509C108.004 14.3629 108.228 13.8109 108.676 13.3949C109.14 12.9629 109.692 12.7469 110.332 12.7469C110.988 12.7469 111.54 12.9629 111.988 13.3949C112.436 13.8109 112.66 14.3629 112.66 15.0509C112.66 15.7389 112.436 16.3069 111.988 16.7549C111.54 17.1869 110.988 17.4029 110.332 17.4029ZM119.587 17.2109L112.339 0.410936H116.539L122.875 15.2909H120.403L126.835 0.410936H130.699L123.427 17.2109H119.587ZM139.954 17.4989C138.658 17.4989 137.45 17.2909 136.33 16.8749C135.226 16.4429 134.266 15.8349 133.45 15.0509C132.634 14.2669 131.994 13.3469 131.53 12.2909C131.082 11.2349 130.858 10.0749 130.858 8.81094C130.858 7.54694 131.082 6.38694 131.53 5.33094C131.994 4.27494 132.634 3.35494 133.45 2.57094C134.282 1.78694 135.25 1.18694 136.354 0.770936C137.458 0.338937 138.666 0.122937 139.978 0.122937C141.434 0.122937 142.746 0.378937 143.914 0.890937C145.098 1.38694 146.09 2.12294 146.89 3.09894L144.394 5.40294C143.818 4.74694 143.178 4.25894 142.474 3.93894C141.77 3.60294 141.002 3.43494 140.17 3.43494C139.386 3.43494 138.666 3.56294 138.01 3.81894C137.354 4.07494 136.786 4.44294 136.306 4.92294C135.826 5.40294 135.45 5.97094 135.178 6.62694C134.922 7.28294 134.794 8.01094 134.794 8.81094C134.794 9.61094 134.922 10.3389 135.178 10.9949C135.45 11.6509 135.826 12.2189 136.306 12.6989C136.786 13.1789 137.354 13.5469 138.01 13.8029C138.666 14.0589 139.386 14.1869 140.17 14.1869C141.002 14.1869 141.77 14.0269 142.474 13.7069C143.178 13.3709 143.818 12.8669 144.394 12.1949L146.89 14.4989C146.09 15.4749 145.098 16.2189 143.914 16.7309C142.746 17.2429 141.426 17.4989 139.954 17.4989Z" fill="#00B1E9"/>
</svg>
