<svg width="105" height="83" viewBox="0 0 105 83" fill="none" xmlns="http://www.w3.org/2000/svg">
<path d="M81.375 36.3125C68.3156 36.3125 57.75 46.7523 57.75 59.6562C57.75 72.5602 68.3156 83 81.375 83C94.4344 83 105 72.5602 105 59.6562C105 46.7523 94.4344 36.3125 81.375 36.3125ZM91.875 60.6775C91.875 61.5367 91.1531 62.25 90.2836 62.25H80.3414C79.4719 62.25 78.75 61.5367 78.75 60.6775V48.26C78.75 47.4008 79.4719 46.6875 80.3414 46.6875H82.4086C83.2781 46.6875 84 47.4008 84 48.26V57.0625H90.2836C91.1531 57.0625 91.875 57.7758 91.875 58.635V60.6775ZM52.5 59.6562C52.5 55.1496 53.5992 50.8861 55.4859 47.0928C54.1734 46.8496 52.8281 46.6875 51.45 46.6875H48.7102C45.068 48.341 41.0156 49.2812 36.75 49.2812C32.4844 49.2812 28.4484 48.341 24.7898 46.6875H22.05C9.87656 46.6875 0 56.4465 0 68.475V75.2188C0 79.5146 3.52734 83 7.875 83H64.8211C57.3891 77.8287 52.5 69.3018 52.5 59.6562ZM36.75 41.5C48.3492 41.5 57.75 32.2111 57.75 20.75C57.75 9.28887 48.3492 0 36.75 0C25.1508 0 15.75 9.28887 15.75 20.75C15.75 32.2111 25.1508 41.5 36.75 41.5Z" fill="url(#paint0_linear_1_3701)"/>
<defs>
<linearGradient id="paint0_linear_1_3701" x1="52.5" y1="2.55915e-06" x2="119.15" y2="114.836" gradientUnits="userSpaceOnUse">
<stop stop-color="#8BD7DC"/>
<stop offset="1" stop-color="#1246A9"/>
</linearGradient>
</defs>
</svg>
