<svg width="672" height="343" viewBox="0 0 672 343" fill="none" xmlns="http://www.w3.org/2000/svg">
<g filter="url(#filter0_d_1_3084)">
<path fill-rule="evenodd" clip-rule="evenodd" d="M497.004 11.6352C495.113 13.6801 495.132 13.9549 497.304 16.0226C498.289 16.9598 499.271 19.2683 499.487 21.1519C499.704 23.0356 500.643 25.4508 501.576 26.5188C502.506 27.5878 503.055 28.5113 502.794 28.5716C502.18 28.7124 506.902 37.1807 509.007 39.713C509.896 40.782 512.129 42.2021 513.971 42.869C515.813 43.5358 517.009 44.3789 516.627 44.7413C515.549 45.7683 508.638 42.4942 508.638 40.957C508.638 40.2028 507.911 39.178 507.022 38.6782C506.133 38.1782 504.765 36.6048 503.98 35.1813C503.194 33.7578 502.02 32.9068 501.367 33.2908C500.715 33.6747 499.533 33.5135 498.742 32.933C497.951 32.3525 494.858 31.7786 491.87 31.6582C487.177 31.4696 485.998 31.9094 483.212 34.8882C481.436 36.7855 479.53 38.3373 478.978 38.3373C478.424 38.3373 477.931 42.1612 477.879 46.8339C477.829 51.5076 477.456 55.8418 477.05 56.4667C476.644 57.0915 472.981 59.4557 468.91 61.7187C464.838 63.9829 461.307 66.0165 461.062 66.2379C460.39 66.8458 465.745 76.2729 467.305 77.2306C468.054 77.6895 469.944 78.0719 471.504 78.0827C476.355 78.112 494.415 89.0188 501.479 96.185C507.083 101.869 510.053 103.093 518.251 103.093H526.35L527.728 99.1166C529.007 95.4279 529.462 95.1403 534.026 95.1403C537.851 95.1403 538.625 94.8371 537.512 93.7777C536.725 93.0274 536.081 91.478 536.081 90.3335C536.081 89.189 535.276 87.9585 534.291 87.5995C533.253 87.2199 532.502 85.5189 532.502 83.5488C532.502 78.8232 528.671 74.1927 522.351 71.2799C519.402 69.92 516.99 68.1795 516.99 67.4104C516.99 66.6412 515.707 64.9508 514.139 63.6522C511.523 61.4868 511.376 60.8336 512.367 55.7781C512.961 52.7471 513.998 50.0888 514.672 49.8718C515.469 49.6151 515.411 48.9209 514.507 47.8837C513.664 46.9158 513.594 46.2898 514.331 46.2898C516.2 46.2898 517.182 49.8127 515.765 51.4395C515.068 52.2382 514.246 54.8864 513.936 57.3243C513.469 61.0165 513.877 62.1708 516.375 64.2396C518.026 65.6063 519.376 67.2286 519.376 67.8455C519.376 68.4624 520.677 69.2781 522.265 69.6587C526.72 70.7232 533.694 78.5327 533.694 82.4552C533.694 84.2815 534.5 86.41 535.484 87.1886C536.468 87.9663 537.291 89.1783 537.313 89.8825C537.415 93.1595 544.433 98.3018 544.433 95.1012C544.433 94.3137 545.245 94.3382 546.885 95.1745C548.234 95.8622 549.961 96.2271 550.721 95.9845C552.076 95.555 557.558 100.859 557.558 102.6C557.558 103.085 558.408 104.377 559.447 105.47C560.486 106.563 562.28 109.132 563.433 111.181C564.587 113.229 566.287 115.261 567.212 115.694C568.136 116.128 570.235 117.059 571.875 117.766C576.938 119.94 582.763 124.442 581.171 124.948C578.443 125.813 594.068 128.131 598.812 127.564C601.606 127.231 604.336 126.027 605.581 124.583C606.792 123.174 608.427 122.439 609.484 122.826C611.37 123.515 611.755 124.253 612.959 129.491C614.012 134.068 618.679 136.337 630.206 137.879C635.858 138.636 642.766 139.619 645.555 140.063L650.625 140.874L650.643 137.036C650.668 131.491 653.085 127.745 657.399 126.568C661.622 125.415 663.785 121.271 660.163 121.271C658.575 121.271 657.785 120.096 657.216 116.887C656.588 113.353 655.607 112.087 652.136 110.347C648.071 108.31 640.137 99.4375 639.965 96.7367C639.922 96.0529 640.987 94.5456 642.331 93.3864C643.994 91.9534 644.661 90.176 644.42 87.8186C644.127 84.9857 643.428 84.2541 640.56 83.7845C637.549 83.2925 636.817 82.418 635.321 77.532C634.367 74.4075 633.565 70.2097 633.542 68.2034C633.519 66.1971 632.788 64.2964 631.919 63.9795C629.974 63.2683 629.876 59.4648 631.718 56.186C633.414 53.172 633.985 45.3251 632.571 44.4936C632.001 44.1584 631.534 42.3806 631.534 40.5424C631.534 37.7329 631.058 37.2012 628.54 37.2012C626.893 37.2012 624.626 36.1788 623.502 34.9291C622.378 33.6794 620.856 32.6569 620.119 32.6569C619.382 32.6569 617.806 31.6345 616.619 30.3848C615.432 29.1352 612.998 28.1127 611.211 28.1127C607.062 28.1127 599.319 25.0588 599.319 23.4218C599.319 22.564 597.162 22.4188 592.458 22.9606C585.132 23.8048 580.228 26.0562 580.228 28.5738C580.228 29.4247 579.152 30.3882 577.837 30.7154C576.328 31.0915 575.695 31.931 576.123 32.9932C576.915 34.9564 570.928 36.1866 559.242 36.4615C553.059 36.6081 551.261 36.1594 547.152 33.4465C544.496 31.6935 540.785 29.8759 538.904 29.4066C536.443 28.7932 535.165 27.5367 534.342 24.9249C533.714 22.9288 532.727 21.2962 532.147 21.2962C530.101 21.2962 526.614 16.143 526.574 13.0598C526.52 8.72446 523.436 9.00393 517.898 13.8482C514.038 17.2234 512.86 17.6597 509.157 17.0882C506.342 16.6531 504.015 15.316 502.357 13.1813C499.504 9.50721 499.084 9.38572 497.004 11.6352ZM222.557 34.3304C220.107 36.5002 218.657 38.2896 219.339 38.3066C220.078 38.3248 220.526 41.3229 220.452 45.7366C220.339 52.4564 219.974 53.4834 216.485 56.912C213.151 60.1862 212.798 61.0791 213.824 63.6432C214.472 65.27 216.103 67.1616 217.447 67.8455C218.79 68.5306 219.891 69.6837 219.891 70.4085C219.891 71.1344 221.148 73.0328 222.684 74.629C224.224 76.2275 226.114 80.3384 226.89 83.7796C227.666 87.217 228.825 90.7952 229.466 91.7323C231.247 94.3411 233.192 90.984 232.677 86.187C232.309 82.7526 232.865 81.9133 237.942 78.2353C242.573 74.8812 243.631 73.4554 243.686 70.4982C243.723 68.5044 243.217 66.5572 242.56 66.1709C241.905 65.7847 241.367 64.4362 241.367 63.174C241.367 61.2313 240.836 60.9892 237.901 61.6027C232.557 62.7206 232.186 60.2395 237.063 55.9861C242.115 51.5793 242.999 46.066 238.981 44.0177C237.669 43.3485 236.595 42.1317 236.595 41.3138C236.595 40.4947 237.669 38.8996 238.981 37.7692C240.294 36.6388 241.367 34.971 241.367 34.0633C241.367 32.4808 241.017 32.5104 235.856 34.5338C235.122 34.8223 234.234 34.0065 233.88 32.7216C232.865 29.0226 227.728 29.752 222.557 34.3304ZM198.612 34.4361C196.561 35.8289 195.475 35.9936 194.494 35.0608C192.497 33.1591 184.092 33.5248 170.561 36.0992C161.511 37.8214 157.837 39.0496 156.052 40.9491C154.737 42.3476 152.426 43.5801 150.916 43.6892C149.405 43.7971 145.899 45.3218 143.124 47.076C138.363 50.0854 138.164 50.4273 139.592 53.1062C140.425 54.6683 141.114 58.6775 141.123 62.0152C141.136 66.3232 141.826 68.9135 143.501 70.9414C147.196 75.414 144.983 78.0993 137.603 78.0993C130.047 78.0993 122.979 81.9925 123.849 85.6754C124.336 87.7237 123.568 88.4524 119.292 90.0068C116.464 91.0349 113.164 93.1282 111.957 94.658C110.571 96.4168 108.062 97.6992 105.142 98.1433C102.601 98.5307 100.232 99.2917 99.8801 99.8336C99.5281 100.377 98.2049 100.821 96.9413 100.821C95.6778 100.821 91.9252 102.414 88.6034 104.36L82.5637 107.898L82.8285 114.108C83.0886 120.249 83.1638 120.365 89.4841 124.486C99.8849 131.27 122.137 147.354 129.302 153.267C132.962 156.288 136.333 158.76 136.793 158.76C139.913 158.76 165.004 179.94 165.004 182.573C165.004 183.223 166.347 183.754 167.987 183.754C169.628 183.754 170.971 184.265 170.971 184.89C170.971 185.515 171.979 186.025 173.211 186.025C176.3 186.025 178.484 188.854 177.551 191.652C176.608 194.482 176.769 194.487 189.603 192.086C199.463 190.241 199.869 190.036 205.942 183.79C211.141 178.444 220.128 171.636 229.24 166.145C230.277 165.52 231.857 164.37 232.752 163.589C233.646 162.808 235.011 162.147 235.785 162.12C236.559 162.093 239.525 160.12 242.376 157.734C247.802 153.197 247.79 153.275 244.029 147.473C243.854 147.2 241.449 146.69 238.689 146.338C234.388 145.788 233.513 145.206 232.598 142.287C231.188 137.793 229.778 134.766 227.993 132.397C226.792 130.804 226.966 129.998 228.976 127.854C231.173 125.506 231.374 124.068 230.98 113.466C230.7 105.944 229.893 100.49 228.747 98.38C227.76 96.5616 227.235 94.6385 227.579 94.1064C228.919 92.0424 223.885 76.8864 221.282 75.1516C219.861 74.2029 218.697 72.7067 218.697 71.8262C218.697 70.9468 217.667 69.7019 216.406 69.06C215.146 68.4181 213.513 66.1539 212.776 64.0295C211.542 60.4679 211.715 59.877 215.012 56.4415C219.072 52.2086 219.594 50.2057 218.617 42.5702C218.133 38.7769 218.398 36.7718 219.503 35.8993C222.351 33.6487 221.199 33.2296 211.237 32.8853C203.547 32.6195 200.788 32.9592 198.612 34.4361ZM467.571 34.4304C465.012 36.8672 457.804 37.8522 455.552 36.0742C454.112 34.9359 453.03 34.9382 450.12 36.0856C447.399 37.1581 445.759 37.2046 443.6 36.2674C440.678 34.9995 438.602 36.1367 439.975 38.2521C441.206 40.1471 438.089 45.0275 436.111 44.3038C434.663 43.7756 434.441 44.212 435.05 46.3818C435.475 47.8939 435.829 50.2808 435.837 51.6861C435.85 53.4243 436.571 54.2423 438.096 54.2423C441.688 54.2423 443.697 57.272 441.687 59.66C438.905 62.9638 437.047 66.6027 437.047 68.751C437.047 72.0364 446.747 76.5319 447.985 73.8202C448.653 72.3545 459.962 64.9213 466.28 61.7937C476.53 56.7212 476.538 56.7087 476.608 46.4443C476.662 38.6384 476.991 37.1818 478.825 36.6274C480.01 36.2696 481.631 35.2301 482.426 34.3166C483.668 32.892 482.851 32.6569 476.653 32.6569C471.701 32.6569 468.849 33.2136 467.571 34.4304ZM104.976 49.8718C102.107 56.0327 93.7019 64.4668 90.4314 64.4668C87.8386 64.4668 79.0963 72.3364 79.0963 74.671C79.0963 75.7628 78.0999 77.8763 76.8829 79.3661C74.085 82.7917 72.5529 90.2689 74.2508 92.2175C77.1932 95.5932 61.917 110.192 51.9683 113.511L46.284 115.408L63.8834 115.499L81.4826 115.59V111.291C81.4826 107.642 82.0697 106.662 85.3605 104.822C87.4926 103.629 89.9481 101.985 90.8144 101.169C91.6818 100.353 93.9322 99.6849 95.815 99.6849C97.699 99.6849 99.5711 99.1734 99.9767 98.5493C100.382 97.9242 101.903 97.4126 103.355 97.4126C104.807 97.4126 107.862 95.9561 110.145 94.1778C112.428 92.3975 116.277 90.0537 118.7 88.966C122.616 87.2111 122.986 86.6907 122.028 84.2903C120.845 81.3283 121.106 81.0368 125.929 79.9393C127.732 79.5285 129.209 78.6901 129.209 78.0778C129.209 77.4646 132.105 76.9637 135.645 76.9637C142.856 76.9637 144.667 75.2084 141.858 70.9402C140.955 69.5667 139.947 64.9622 139.617 60.7076C138.958 52.2098 136.781 49.3196 131.894 50.4557C130.33 50.8193 129.209 50.5546 129.209 49.8207C129.209 49.0697 126.837 48.5619 123.328 48.5619C119.585 48.5619 116.77 47.9165 115.583 46.785C114.556 45.808 113.152 45.3412 112.462 45.7467C111.772 46.1535 110.442 45.8806 109.507 45.1411C108.103 44.0323 107.309 44.8628 104.976 49.8718ZM433.359 61.522L431.461 67.6614L434.255 66.4504C435.791 65.7836 437.047 64.4203 437.047 63.4216C437.047 62.4231 438.162 60.9427 439.524 60.1328C441.515 58.949 441.72 58.3367 440.573 57.0188C437.68 53.7003 435.324 55.1714 433.359 61.522ZM245.265 70.8084C245.894 73.802 245.386 74.4846 240.038 77.8538C234.373 81.4212 234.15 81.7577 234.904 85.5854C235.541 88.8202 235.173 90.1124 232.986 92.329C231.499 93.8364 229.824 94.8009 229.262 94.4702C227.784 93.6016 228.004 94.8146 229.985 98.4603C231.09 100.496 231.904 106.295 232.214 114.348C232.672 126.234 232.545 127.136 230.188 128.707C228.079 130.113 227.913 130.701 229.159 132.359C230.868 134.633 233.735 140.232 234.681 143.139C235.095 144.415 236.528 145.128 238.678 145.128C242.964 145.128 246.862 147.728 247.775 151.197C248.346 153.362 249.493 154.04 253.425 154.542C256.724 154.963 259.618 156.334 262.152 158.67C266.486 162.671 269.193 163.078 271.427 160.065C272.285 158.909 274.738 157.102 276.878 156.053L280.77 154.143L293.211 160.355C306.838 167.16 309.916 168.864 317.328 173.697C320.061 175.48 322.758 176.937 323.321 176.937C323.886 176.937 327.019 178.611 330.286 180.655C341.028 187.381 346.077 189.52 346.826 187.662C347.206 186.719 349.07 186.025 351.228 186.025H354.973L354.133 158.476C353.672 143.324 352.771 123.769 352.134 115.022C350.072 86.724 350.064 82.6939 352.061 81.6296C354.344 80.4137 352.921 78.0993 349.892 78.0993C344.895 78.0993 336.966 75.3448 336.439 73.4248C335.602 70.3744 327.606 68.5329 321.737 70.0381C312.608 72.3784 308.343 78.8271 311.824 85.0219C312.855 86.856 312.441 87.8538 309.478 90.6758C305.976 94.0115 305.783 94.0545 302.26 92.3202C300.268 91.341 298.64 90.1212 298.64 89.6135C298.64 88.2323 293.012 86.0549 286.316 84.8459C279.308 83.5801 277.586 82.3994 275.364 77.3385C274.451 75.2572 272.853 73.5554 271.812 73.5554C270.771 73.5554 268.637 72.7555 267.071 71.7785C265.46 70.7731 260.944 69.8541 256.672 69.6621C252.52 69.4757 248.098 68.9123 246.845 68.409C244.834 67.6002 244.65 67.8785 245.265 70.8084ZM456.138 69.5791C455.321 70.5164 453.997 71.2832 453.194 71.2832C452.391 71.2832 450.763 72.3057 449.576 73.5554C447.023 76.2399 443.184 76.4819 439.96 74.1598C438.687 73.2419 437.376 72.4761 437.047 72.4557C436.719 72.4364 436.46 75.6151 436.472 79.5206C436.491 86.3914 436.13 88.7469 433.705 97.5955C432.567 101.74 432.579 101.759 436.843 102.521C440.642 103.199 441.461 102.89 444.156 99.7701C445.825 97.8372 448.021 96.2603 449.039 96.2662C451.309 96.2789 453.752 94.0809 453.752 92.0258C453.752 91.1874 452.678 89.4032 451.366 88.0631C450.053 86.7211 448.979 85.2459 448.979 84.7842C448.979 83.2055 455.263 79.236 457.791 79.2184C462.484 79.1861 463.24 77.9438 461.767 72.6898C460.356 67.6558 458.642 66.7084 456.138 69.5791ZM429.756 72.1353C429.059 73.8542 428.335 77.1193 428.147 79.3935C427.96 81.6668 427.475 84.0389 427.069 84.6639C426.099 86.1586 431.192 97.7902 432.303 96.6144C432.773 96.1165 433.484 93.2993 433.88 90.3531C434.419 86.3718 434.172 84.7686 432.919 84.1005C429.108 82.0698 429.691 73.0306 433.699 72.0331C435.016 71.7047 435.74 70.8902 435.308 70.2233C433.864 68 431.038 68.9736 429.756 72.1353ZM432.523 77.8225C432.715 80.4724 433.409 82.4601 434.064 82.238C435.507 81.7528 434.964 75.7105 433.337 74.1325C432.58 73.3987 432.297 74.6868 432.523 77.8225ZM460.911 79.7887C459.271 80.6896 457.055 81.4457 455.986 81.4682C452.33 81.5425 450.994 84.4556 453.167 87.6141C456.157 91.9592 455.076 95.4846 450.303 96.9538C447.926 97.6855 445.544 99.4922 444.534 101.329C442.944 104.216 442.415 104.402 437.707 103.73L432.603 103.001L431.855 107.307C430.731 113.788 430.879 114.454 433.444 114.454C434.983 114.454 436.623 115.978 438.149 118.827C439.438 121.231 442.294 125.449 444.496 128.199C449.5 134.449 452.205 139.134 453.08 143.066C453.502 144.959 455.641 147.332 458.716 149.315C464.512 153.053 468.66 161.272 469.837 171.351C470.607 177.95 472.81 181.023 480.934 186.834C482.864 188.217 486.445 193.201 488.889 197.911C491.333 202.621 493.792 206.475 494.354 206.475C494.916 206.475 496.883 209.031 498.724 212.154C500.568 215.277 502.477 217.833 502.97 217.834C503.924 217.836 503.93 217.816 504.303 212.941C504.583 209.275 507.237 207.169 509.411 208.887C510.386 209.657 512.289 209.657 515.221 208.887C518.003 208.155 520.65 208.128 522.538 208.812C524.166 209.401 527.503 209.883 529.954 209.883C532.404 209.883 535.101 210.522 535.946 211.304C537.179 212.445 537.869 212.203 539.466 210.068C547.925 198.751 550.834 197.262 567.699 195.611C572.294 195.161 579.542 193.539 583.807 192.005C588.073 190.471 592.57 189.027 593.799 188.795C599.574 187.708 601.191 185.385 602.821 175.829C604.805 164.191 604.489 163.826 591.069 162.238C579.229 160.836 576.998 159.641 571.702 151.857C569.507 148.633 566.502 145.558 565.021 145.022C563.322 144.406 562.328 143.095 562.322 141.463C562.319 140.042 561.249 137.345 559.944 135.471C558.64 133.597 557.57 130.674 557.566 128.978C557.56 127.062 556.654 125.434 555.171 124.679C553.859 124.008 552.785 122.756 552.785 121.894C552.785 121.031 551.174 119.646 549.206 118.816C547.236 117.986 545.626 116.488 545.626 115.489C545.626 112.812 541.719 109.91 538.117 109.91C536.262 109.91 534.479 109.034 533.773 107.778C532.774 106 530.802 105.567 521.904 105.161C509.945 104.617 507.679 103.562 495.458 92.865C482.833 81.8145 467.673 76.0763 460.911 79.7887ZM352.677 82.9277C351.403 84.5152 351.564 91.8888 353.366 114.454C354.041 122.889 354.625 135.414 354.667 142.287C354.707 149.161 355.074 157.431 355.482 160.667L356.224 166.549L380.827 166.915C394.357 167.116 405.561 167.025 405.723 166.712C405.887 166.4 409.813 166.316 414.45 166.525C420.335 166.789 423.078 167.391 423.53 168.513C424.547 171.037 425.461 170.559 433.433 163.336C439.101 158.201 440.769 155.99 440.289 154.248C439.864 152.698 440.236 151.943 441.427 151.943C442.795 151.943 442.615 151.238 440.628 148.819C437.559 145.085 426.309 126.208 426.309 124.794C426.309 124.249 425.507 122.338 424.526 120.548C422.113 116.141 422.102 113.679 424.504 115.578C427.654 118.067 429.549 116.047 430.541 109.147C431.719 100.946 431.667 100.612 427.948 92.5148C426.281 88.8848 425.214 85.1765 425.577 84.2756C426.15 82.8513 425.89 82.8523 423.589 84.2815C420.637 86.1146 413.368 86.3405 411.148 84.6688C410.356 84.0721 409.136 83.9225 408.434 84.3343C407.733 84.7471 407.306 84.4585 407.487 83.6926C407.706 82.7584 405.552 82.1383 400.954 81.8125C396.518 81.4966 394.094 81.7577 394.094 82.552C394.094 83.228 393.457 83.7796 392.678 83.7796C391.9 83.7796 390.027 84.887 388.514 86.2398C386.155 88.3507 385.331 88.5121 382.714 87.3755C381.036 86.6477 378.749 86.0353 377.631 86.0138C376.513 85.9923 373.452 84.9877 370.827 83.7796C365.359 81.2657 354.424 80.7522 352.677 82.9277ZM530.606 97.1456C528.393 98.5698 527.715 103.093 529.715 103.093C531.765 103.093 534.887 105.787 534.887 107.556C534.887 108.225 536.23 108.773 537.87 108.773C539.511 108.773 540.854 108.541 540.854 108.259C540.854 106.588 537.876 101.951 536.784 101.923C536.069 101.903 536.424 101.367 537.572 100.731C541.11 98.7684 540.104 96.274 535.782 96.2936C533.649 96.3043 531.321 96.6868 530.606 97.1456ZM417.859 106.786C418.501 108.504 418.807 109.91 418.541 109.91C417.804 109.91 411.987 100.198 412.017 99.0168C412.06 97.3529 416.581 103.366 417.859 106.786ZM422.132 112.181C422.538 112.806 422.333 113.318 421.677 113.318C421.02 113.318 420.152 112.806 419.747 112.181C419.341 111.557 419.547 111.046 420.202 111.046C420.859 111.046 421.728 111.557 422.132 112.181ZM44.0969 118.62C43.6591 119.035 43.3011 120.165 43.3011 121.129C43.3011 122.091 40.6164 125.317 37.3352 128.298C33.1973 132.056 31.3694 134.611 31.3694 136.638C31.3694 140.611 28.5308 145.539 24.9586 147.769C23.3346 148.782 21.6534 150.775 21.2227 152.197C19.8732 156.664 16.8354 162.647 14.7199 165.008C12.6545 167.314 9.79451 175.332 10.0117 178.205C10.0773 179.07 10.5033 178.499 10.9579 176.937C11.7823 174.113 11.8718 174.095 27.5441 173.781L43.3011 173.464V166.159V158.855L48.6704 155.86L54.0396 152.864V142.179V131.495H67.1646H80.2894L80.4421 127.235C80.5257 124.892 80.7202 121.824 80.8753 120.419C81.1556 117.867 81.1163 117.862 63.0242 117.862C53.0517 117.862 44.5337 118.203 44.0969 118.62ZM606.186 132.063C606.499 133.625 607.23 134.903 607.811 134.903C608.39 134.903 608.864 133.625 608.864 132.063C608.864 130.424 608.177 129.222 607.24 129.222C606.151 129.222 605.804 130.158 606.186 132.063ZM559.598 132.63C559.941 133.88 560.697 134.903 561.276 134.903C561.855 134.903 562.33 133.88 562.33 132.63C562.33 131.381 561.576 130.359 560.653 130.359C559.562 130.359 559.192 131.154 559.598 132.63ZM563.769 133.584C562.146 138.018 563.253 142.426 566.5 144.451C569.073 146.057 569.249 145.984 569.849 143.08C570.954 137.74 568.652 130.359 565.88 130.359C565.369 130.359 564.419 131.811 563.769 133.584ZM598.126 139.658C591.265 147.823 588.914 149.086 582.014 148.319C579.72 148.064 577.842 148.264 577.842 148.763C577.842 149.262 576.768 149.671 575.455 149.671C574.143 149.671 573.069 149.161 573.069 148.536C573.069 147.91 572.55 147.4 571.914 147.4C570.052 147.4 572.169 151.422 576.307 155.742C579.338 158.905 581.337 159.889 585.853 160.438C588.993 160.82 593.266 161.381 595.348 161.685C599.783 162.333 600.063 162.023 601.111 155.336C601.548 152.541 602.293 149.995 602.763 149.68C603.235 149.363 603.593 147.315 603.558 145.128C603.506 141.889 603.937 141.151 605.881 141.151C607.448 141.151 608.399 140.273 608.65 138.595C608.898 136.92 608.414 136.039 607.24 136.039C606.256 136.039 605.278 135.096 605.07 133.944C604.785 132.379 603.029 133.825 598.126 139.658ZM606.424 142.458C605.083 142.803 604.712 144.007 605.062 146.87C605.357 149.273 605.03 150.808 604.222 150.808C603.494 150.808 602.989 151.191 603.098 151.66C603.209 152.127 602.892 154.375 602.393 156.652C601.711 159.766 602 161.54 603.552 163.797C605.228 166.232 605.473 168.239 604.849 174.424C603.631 186.488 603.586 186.558 594.744 189.753C590.37 191.335 585.29 192.948 583.458 193.337C581.625 193.728 579.801 194.852 579.403 195.838C579.005 196.828 580.759 201.687 583.326 206.7L587.971 215.77L592.154 214.989C594.454 214.558 597.888 214.129 599.784 214.033C601.744 213.934 603.675 213.002 604.259 211.871C604.823 210.777 605.742 208.989 606.3 207.895C606.858 206.801 608.782 205.741 610.574 205.539C612.958 205.268 614.275 204.163 615.481 201.416C617.128 197.659 619.192 196.25 623.045 196.25C624.741 196.25 625.088 195.183 625.035 190.099C624.962 182.983 625.613 181.952 629.063 183.71C631.121 184.759 631.712 184.634 632.363 183.018C632.813 181.905 632.554 180.858 631.768 180.609C630.903 180.334 631.658 178.592 633.765 175.996C635.629 173.701 637.792 170.257 638.576 168.34C639.942 164.988 639.764 164.631 633.908 158.967C630.562 155.729 627.181 153.076 626.398 153.073C621.526 153.052 616.294 150.366 613.109 146.253C611.179 143.759 609.299 141.778 608.933 141.851C608.567 141.924 607.438 142.196 606.424 142.458ZM435.509 163.38C425.775 172.334 425.341 172.549 422.826 169.664C421.701 168.373 415.208 168.046 388.675 167.944L355.912 167.818V177.491V187.162H352.361H348.81L348.483 206.191L348.156 225.22L344.535 225.558C341.585 225.834 340.487 226.78 338.604 230.67C337.333 233.296 336.408 236.357 336.55 237.471C336.691 238.586 336.009 239.789 335.032 240.146C333.858 240.574 333.492 241.679 333.948 243.41C334.327 244.849 334.068 247.04 333.372 248.278C332.329 250.134 332.521 250.634 334.464 251.118C336.313 251.578 336.822 252.679 336.822 256.217C336.822 258.943 337.567 261.317 338.707 262.218C339.788 263.071 340.372 264.805 340.078 266.277C339.785 267.731 340.234 269.091 341.112 269.411C344.087 270.499 346.597 276.974 346.053 282.16C345.599 286.501 345.828 287.136 347.851 287.136C349.166 287.136 350.44 288.12 350.793 289.408C351.182 290.822 352.421 291.68 354.077 291.68C357.11 291.68 361.296 295.5 360.166 297.239C359.754 297.876 360.908 299.278 362.735 300.355C367.175 302.976 369.036 305.263 369.036 308.101C369.036 309.452 370.179 310.932 371.72 311.577C373.196 312.193 375.21 314.322 376.194 316.308C377.18 318.294 379.155 321.195 380.585 322.756C382.951 325.339 383.836 325.545 390.43 325.058C397.223 324.557 397.759 324.698 399.013 327.318C400.559 330.549 403.791 331.856 409.362 331.503C411.525 331.365 413.959 331.778 414.771 332.419C415.699 333.152 416.896 333.193 417.998 332.531C418.959 331.951 422.014 331.47 424.786 331.459C429.173 331.444 430.067 330.999 431.678 328.034C433.393 324.877 434.011 324.626 440.062 324.626C446.524 324.626 446.592 324.589 446.592 321.217C446.592 318.672 446.041 317.81 444.408 317.81C443.186 317.81 441.557 316.433 440.714 314.685C436.045 305.026 432.011 299.792 427.73 297.848C424.51 296.384 423.85 295.494 424.15 293.015C424.451 290.539 425.207 289.913 428.232 289.632L431.942 289.288L432.596 280.217C433.208 271.708 434.927 267.143 437.048 268.392C437.557 268.691 438.335 266.64 438.776 263.835C439.219 261.029 440.042 258.734 440.608 258.734C441.172 258.734 442.256 256.945 443.014 254.758C443.906 252.181 445.144 250.781 446.53 250.781C449.008 250.781 450.108 246.198 450.211 235.444C450.247 231.696 451.05 226.583 451.997 224.084C452.941 221.584 453.725 218.118 453.734 216.38C453.745 214.486 454.551 212.927 455.749 212.49C456.847 212.089 458.592 211.069 459.627 210.223C460.661 209.378 463.02 207.546 464.87 206.153L468.232 203.619L463.405 200.219C457.823 196.288 456.282 192.759 455.693 182.57C455.461 178.535 454.395 173.699 453.325 171.825C452.256 169.95 451.377 167.82 451.373 167.092C451.366 165.806 442.85 158.76 441.302 158.76C440.879 158.76 438.271 160.839 435.509 163.38ZM565.91 196.877C564.925 197.079 561.548 197.565 558.403 197.959C551.928 198.771 546.023 202.987 541.225 210.223C538.506 214.324 538.151 214.507 536.201 212.827C535.048 211.833 531.998 210.968 529.424 210.906C526.852 210.843 523.403 210.422 521.763 209.971C520.122 209.519 516.998 209.605 514.821 210.159C512.223 210.821 510.329 210.748 509.311 209.945C507.272 208.332 504.713 211.111 505.785 213.773C506.254 214.936 505.59 216.654 504.087 218.178C501.513 220.788 500.835 226.709 502.629 230.901C504.328 234.865 506.696 243.358 506.404 244.433C505.735 246.895 509.06 251.927 511.466 252.097C517.715 252.537 522.845 251.277 525.888 248.555C527.454 247.154 530.101 246.235 532.578 246.232C534.839 246.228 538.819 244.97 541.45 243.426C544.075 241.888 547.39 240.611 548.815 240.593C550.243 240.573 552.927 239.344 554.782 237.864C556.637 236.383 561.108 234.042 564.717 232.661C579.711 226.926 581.608 225.864 580.858 223.616C580.075 221.268 582.939 217.836 585.682 217.836C588.107 217.836 587.996 217.505 581.806 206.329C576.328 196.435 576.147 196.252 571.963 196.382C569.618 196.455 566.895 196.678 565.91 196.877ZM493.907 214.144C493.562 214.676 494.319 215.727 495.591 216.481C496.86 217.237 497.899 217.402 497.899 216.848C497.899 215.289 494.61 213.062 493.907 214.144ZM591.599 252.999C591.168 253.663 591.609 254.496 592.58 254.851C595.169 255.796 601.109 254.941 601.109 253.622C601.109 252.061 592.57 251.503 591.599 252.999ZM505.629 254.228C505.167 254.941 503.773 255.271 502.533 254.962C500.89 254.553 500.079 255.145 499.554 257.136C499.158 258.64 498.355 259.871 497.771 259.871C497.185 259.871 496.706 261.461 496.706 263.405C496.706 266.871 496.794 266.924 501.18 266.161C503.642 265.735 506.441 264.655 507.401 263.764C508.928 262.348 508.777 262.137 506.208 262.097L503.268 262.051L506.622 260.32C508.952 259.118 509.863 257.857 509.605 256.194C509.18 253.452 506.874 252.312 505.629 254.228ZM580.825 256.462C581.231 257.087 582.099 257.598 582.755 257.598C583.412 257.598 583.617 257.087 583.211 256.462C582.805 255.838 581.937 255.326 581.281 255.326C580.624 255.326 580.419 255.838 580.825 256.462Z" fill="#BECAD6" fill-opacity="0.24" shape-rendering="crispEdges"/>
</g>
<defs>
<filter id="filter0_d_1_3084" x="0" y="0" width="672" height="343" filterUnits="userSpaceOnUse" color-interpolation-filters="sRGB">
<feFlood flood-opacity="0" result="BackgroundImageFix"/>
<feColorMatrix in="SourceAlpha" type="matrix" values="0 0 0 0 0 0 0 0 0 0 0 0 0 0 0 0 0 0 127 0" result="hardAlpha"/>
<feOffset/>
<feGaussianBlur stdDeviation="5"/>
<feComposite in2="hardAlpha" operator="out"/>
<feColorMatrix type="matrix" values="0 0 0 0 1 0 0 0 0 1 0 0 0 0 1 0 0 0 1 0"/>
<feBlend mode="normal" in2="BackgroundImageFix" result="effect1_dropShadow_1_3084"/>
<feBlend mode="normal" in="SourceGraphic" in2="effect1_dropShadow_1_3084" result="shape"/>
</filter>
</defs>
</svg>
