<svg width="95" height="95" viewBox="0 0 95 95" fill="none" xmlns="http://www.w3.org/2000/svg">
<path d="M47.5 0C21.2658 0 0 21.2658 0 47.5C0 73.7342 21.2658 95 47.5 95C73.7342 95 95 73.7342 95 47.5C95 21.2658 73.7342 0 47.5 0ZM63.2612 68.4919C62.5142 69.2351 61.7308 70.0146 61.095 70.6524C60.5223 71.227 60.1181 71.9357 59.9132 72.7037C59.624 73.7878 59.3903 74.8834 58.9996 75.9349L55.6688 84.9082C53.0334 85.4828 50.3059 85.8064 47.5 85.8064V80.5623C47.8237 78.1452 46.0367 73.6173 43.1656 70.7463C42.0164 69.5971 41.371 68.038 41.371 66.4119V60.2809C41.371 58.0515 40.1701 56.0021 38.2183 54.9238C35.466 53.4011 31.5511 51.2732 28.8697 49.9229C26.6709 48.8158 24.6368 47.4061 22.8077 45.7571L22.6544 45.6192C21.3464 44.4384 20.185 43.1047 19.1954 41.6468C17.3988 39.0094 14.4722 34.6712 12.5703 31.8518C16.4909 23.1371 23.5566 16.1385 32.3364 12.3366L36.9351 14.6369C38.973 15.6558 41.371 14.1753 41.371 11.8961V9.73175C42.9013 9.48468 44.4585 9.32762 46.0424 9.26825L51.4628 14.6886C52.6599 15.8857 52.6599 17.8259 51.4628 19.023L50.5645 19.9194L48.5841 21.8998C47.9865 22.4974 47.9865 23.4684 48.5841 24.066L49.4824 24.9643C50.0799 25.5619 50.0799 26.533 49.4824 27.1305L47.9501 28.6628C47.6624 28.9499 47.2725 29.1111 46.866 29.111H45.1442C44.7458 29.111 44.3627 29.2661 44.0754 29.5458L42.1754 31.3941C41.9425 31.6208 41.7877 31.9158 41.7333 32.2363C41.6789 32.5568 41.7277 32.8863 41.8728 33.1772L44.8588 39.1511C45.3682 40.1701 44.627 41.3691 43.4893 41.3691H42.4091C42.0394 41.3691 41.6832 41.235 41.4054 40.9936L39.628 39.4499C39.2258 39.101 38.7397 38.8627 38.2175 38.7586C37.6953 38.6545 37.155 38.6881 36.6497 38.8561L30.6796 40.8462C30.2238 40.9981 29.8274 41.2897 29.5466 41.6795C29.2657 42.0694 29.1147 42.5377 29.1148 43.0181C29.1148 43.8858 29.6051 44.6768 30.3808 45.0656L32.503 46.1267C34.3053 47.0288 36.2934 47.4981 38.3084 47.4981C40.3233 47.4981 42.6351 52.725 44.4374 53.6271H57.2222C58.8483 53.6271 60.4054 54.2726 61.5566 55.4218L64.1786 58.0438C65.274 59.1397 65.8893 60.6258 65.889 62.1752C65.8886 63.3493 65.6563 64.5117 65.2053 65.5957C64.7543 66.6798 64.0937 67.664 63.2612 68.4919ZM79.8689 50.9955C78.76 50.7177 77.7927 50.0378 77.1588 49.0859L73.715 43.9203C73.2111 43.1656 72.9422 42.2784 72.9422 41.371C72.9422 40.4635 73.2111 39.5764 73.715 38.8217L77.4671 33.1945C77.9115 32.5298 78.5206 31.9897 79.2369 31.6335L81.723 30.3904C84.3125 35.5465 85.8064 41.3461 85.8064 47.5C85.8064 49.1606 85.6647 50.7867 85.4579 52.3917L79.8689 50.9955Z" fill="url(#paint0_linear_1_3696)"/>
<defs>
<linearGradient id="paint0_linear_1_3696" x1="47.5" y1="2.92915e-06" x2="131.325" y2="114.168" gradientUnits="userSpaceOnUse">
<stop stop-color="#8BD7DC"/>
<stop offset="1" stop-color="#1246A9"/>
</linearGradient>
</defs>
</svg>
