<svg width="71" height="91" viewBox="0 0 71 91" fill="none" xmlns="http://www.w3.org/2000/svg">
<path d="M35.1111 90.1933C28.4634 90.1933 22.5685 89.0569 17.4264 86.7842C12.3128 84.483 8.27872 81.3154 5.32417 77.2813C2.36963 73.2473 0.863947 68.6024 0.807129 63.3467H22.0287C22.1139 65.2501 22.7247 66.9404 23.8611 68.4177C24.9975 69.8666 26.5458 71.0029 28.506 71.8268C30.4662 72.6507 32.6963 73.0626 35.1963 73.0626C37.6963 73.0626 39.898 72.6223 41.8014 71.7416C43.7333 70.8325 45.2389 69.5967 46.3185 68.0342C47.398 66.4433 47.9236 64.6251 47.8952 62.5796C47.9236 60.5342 47.3412 58.716 46.148 57.1251C44.9549 55.5342 43.2645 54.2984 41.077 53.4177C38.9179 52.537 36.3611 52.0967 33.4066 52.0967H24.9264V37.0967H33.4066C35.9918 37.0967 38.2645 36.6705 40.2247 35.8183C42.2134 34.966 43.7617 33.7728 44.8696 32.2387C45.9776 30.6762 46.5174 28.8865 46.4889 26.8694C46.5174 24.9092 46.0486 23.1904 45.0827 21.7132C44.1452 20.2075 42.8242 19.0427 41.1196 18.2188C39.4435 17.395 37.4975 16.983 35.2816 16.983C32.952 16.983 30.8355 17.395 28.9321 18.2188C27.0571 19.0427 25.5657 20.2075 24.4577 21.7132C23.3497 23.2188 22.7674 24.966 22.7105 26.9546H2.55429C2.61111 21.7558 4.05997 17.1819 6.90088 13.233C9.74179 9.25577 13.6054 6.14497 18.4918 3.90066C23.4066 1.65634 29.0032 0.53418 35.2816 0.53418C41.5316 0.53418 47.0287 1.62793 51.773 3.81543C56.5174 6.00293 60.2105 8.98588 62.8526 12.7643C65.4946 16.5143 66.8157 20.7615 66.8157 25.5058C66.8441 30.4205 65.2389 34.4688 62.0003 37.6507C58.7901 40.8325 54.6566 42.7927 49.5997 43.5313V44.2132C56.3611 45.0086 61.4605 47.1961 64.898 50.7757C68.364 54.3552 70.0827 58.8296 70.0543 64.199C70.0543 69.2558 68.5628 73.7444 65.5799 77.6649C62.6253 81.5569 58.506 84.6251 53.2219 86.8694C47.9662 89.0853 41.9293 90.1933 35.1111 90.1933Z" fill="url(#paint0_linear_1882_46)"/>
<defs>
<linearGradient id="paint0_linear_1882_46" x1="35.5" y1="-27" x2="164.74" y2="71.3295" gradientUnits="userSpaceOnUse">
<stop stop-color="#8BD7DC"/>
<stop offset="1" stop-color="#1246A9"/>
</linearGradient>
</defs>
</svg>
