<svg width="60" height="74" viewBox="0 0 60 74" fill="none" xmlns="http://www.w3.org/2000/svg">
<path d="M28.4219 36.753C27.6406 34.4569 27.6562 30.0224 28.1094 30.0224C29.4219 30.0224 29.2969 35.3179 28.4219 36.753ZM28.1562 43.5267C26.9531 46.4256 25.4531 49.7407 23.7188 52.5248C26.5781 51.5203 29.8125 50.0565 33.5469 49.382C31.5625 48.0043 29.6562 46.0238 28.1562 43.5267ZM13.4531 61.4368C13.4531 61.5516 15.5156 60.6619 18.9062 55.6677C17.8594 56.5718 14.3594 59.1837 13.4531 61.4368ZM38.75 22.9617H60V70.0331C60 71.9418 58.3281 73.4774 56.25 73.4774H3.75C1.67188 73.4774 0 71.9418 0 70.0331V3.44425C0 1.53556 1.67188 0 3.75 0H35V19.5174C35 21.4118 36.6875 22.9617 38.75 22.9617ZM37.5 47.6168C34.375 45.8659 32.2969 43.455 30.8281 39.8959C31.5312 37.241 32.6406 33.2083 31.7969 30.6825C31.0625 26.4633 25.1719 26.8795 24.3281 29.7067C23.5469 32.3329 24.2656 36.0355 25.5938 40.757C23.7812 44.7179 21.1094 50.0278 19.2188 53.0702C19.2031 53.0702 19.2031 53.0845 19.1875 53.0845C14.9531 55.0793 7.6875 59.4707 10.6719 62.8432C11.5469 63.8335 13.1719 64.2783 14.0312 64.2783C16.8281 64.2783 19.6094 61.6952 23.5781 55.4094C27.6094 54.1896 32.0312 52.6683 35.9219 52.08C39.3125 53.7734 43.2812 54.8784 45.9219 54.8784C50.4844 54.8784 50.7969 50.2861 49 48.6501C46.8281 46.6983 40.5156 47.258 37.5 47.6168ZM58.9062 15.0686L43.5938 1.00457C42.8906 0.358776 41.9375 0 40.9375 0H40V18.3693H60V17.4939C60 16.5898 59.6094 15.7144 58.9062 15.0686ZM47.3281 51.7068C47.9688 51.3193 46.9375 49.9991 40.6406 50.4152C46.4375 52.6827 47.3281 51.7068 47.3281 51.7068Z" fill="url(#paint0_linear_1_2720)"/>
<defs>
<linearGradient id="paint0_linear_1_2720" x1="30" y1="2.26554e-06" x2="97.5706" y2="75.1497" gradientUnits="userSpaceOnUse">
<stop stop-color="#8BD7DC"/>
<stop offset="1" stop-color="#1246A9"/>
</linearGradient>
</defs>
</svg>
