<svg width="67" height="76" viewBox="0 0 67 76" fill="none" xmlns="http://www.w3.org/2000/svg">
<path d="M31.7378 38.0148C30.8654 35.6398 30.8828 31.0531 31.3888 31.0531C32.8544 31.0531 32.7148 36.5305 31.7378 38.0148ZM31.4411 45.0211C30.0977 48.0195 28.4227 51.4484 26.4859 54.3281C29.6789 53.2891 33.2906 51.775 37.4607 51.0773C35.2448 49.6523 33.1161 47.6039 31.4411 45.0211ZM15.0227 63.5461C15.0227 63.6648 17.3258 62.7445 21.112 57.5789C19.943 58.5141 16.0346 61.2156 15.0227 63.5461ZM43.2708 23.75H67V72.4375C67 74.4117 65.1331 76 62.8125 76H4.1875C1.86693 76 0 74.4117 0 72.4375V3.5625C0 1.58828 1.86693 0 4.1875 0H39.0833V20.1875C39.0833 22.1469 40.9677 23.75 43.2708 23.75ZM41.875 49.2516C38.3854 47.4406 36.0648 44.9469 34.4247 41.2656C35.2099 38.5195 36.4487 34.3484 35.5065 31.7359C34.6865 27.3719 28.1086 27.8023 27.1664 30.7266C26.294 33.443 27.0966 37.2727 28.5797 42.1562C26.5557 46.2531 23.5721 51.7453 21.4609 54.8922C21.4435 54.8922 21.4435 54.907 21.426 54.907C16.6977 56.9703 8.58438 61.5125 11.9169 65.0008C12.894 66.025 14.7086 66.4852 15.6682 66.4852C18.7914 66.4852 21.8971 63.8133 26.3289 57.3117C30.8305 56.05 35.7682 54.4766 40.1128 53.868C43.899 55.6195 48.3307 56.7625 51.2794 56.7625C56.3742 56.7625 56.7232 52.0125 54.7167 50.3203C52.2914 48.3016 45.2424 48.8805 41.875 49.2516ZM65.7786 15.5859L48.6797 1.03906C47.8945 0.371094 46.8302 0 45.7135 0H44.6667V19H67V18.0945C67 17.1594 66.5638 16.2539 65.7786 15.5859ZM52.8497 53.482C53.5651 53.0812 52.4135 51.7156 45.382 52.1461C51.8552 54.4914 52.8497 53.482 52.8497 53.482Z" fill="url(#paint0_linear_1_3451)"/>
<defs>
<linearGradient id="paint0_linear_1_3451" x1="33.5" y1="2.34332e-06" x2="102.626" y2="82.9996" gradientUnits="userSpaceOnUse">
<stop stop-color="#8BD7DC"/>
<stop offset="1" stop-color="#1246A9"/>
</linearGradient>
</defs>
</svg>
