<svg width="82" height="67" viewBox="0 0 82 67" fill="none" xmlns="http://www.w3.org/2000/svg">
<path d="M65.6194 25.0616L64.5687 26.9391C64.1843 27.6349 63.3642 27.9238 62.6339 27.6481C61.1219 27.0704 59.738 26.2433 58.5207 25.2061C57.9313 24.7072 57.7775 23.8275 58.1619 23.1448L59.2127 21.2674C58.3285 20.217 57.6366 18.996 57.1753 17.67H55.0611C54.2922 17.67 53.6259 17.1055 53.4978 16.3177C53.2415 14.7422 53.2287 13.088 53.4978 11.4469C53.6259 10.6591 54.2922 10.0815 55.0611 10.0815H57.1753C57.6366 8.75542 58.3285 7.53442 59.2127 6.4841L58.1619 4.60666C57.7775 3.92395 57.9185 3.0443 58.5207 2.5454C59.738 1.50821 61.1347 0.681083 62.6339 0.103406C63.3642 -0.172303 64.1843 0.116535 64.5687 0.812373L65.6194 2.68982C66.9649 2.44037 68.3359 2.44037 69.6813 2.68982L70.732 0.812373C71.1164 0.116535 71.9365 -0.172303 72.6669 0.103406C74.1789 0.681083 75.5628 1.50821 76.78 2.5454C77.3695 3.0443 77.5232 3.92395 77.1388 4.60666L76.0881 6.4841C76.9722 7.53442 77.6642 8.75542 78.1255 10.0815H80.2397C81.0085 10.0815 81.6748 10.646 81.803 11.4337C82.0592 13.0092 82.072 14.6635 81.803 16.3046C81.6748 17.0923 81.0085 17.67 80.2397 17.67H78.1255C77.6642 18.996 76.9722 20.217 76.0881 21.2674L77.1388 23.1448C77.5232 23.8275 77.3823 24.7072 76.78 25.2061C75.5628 26.2433 74.1661 27.0704 72.6669 27.6481C71.9365 27.9238 71.1164 27.6349 70.732 26.9391L69.6813 25.0616C68.3487 25.3111 66.9649 25.3111 65.6194 25.0616V25.0616ZM64.274 17.3418C69.2072 21.228 74.8324 15.4643 71.0396 10.4097C66.1064 6.51036 60.4812 12.2871 64.274 17.3418V17.3418ZM49.5 37.5473L53.8181 39.753C55.1123 40.5145 55.6761 42.1293 55.1636 43.5735C54.0232 46.7508 51.7808 49.6654 49.705 52.2124C48.7568 53.3809 47.1167 53.6697 45.8225 52.9083L42.0937 50.7026C40.0436 52.5013 37.6603 53.9323 35.0591 54.8645V59.2758C35.0591 60.7988 33.9956 62.1117 32.5348 62.3743C29.3827 62.9257 26.0768 62.952 22.8093 62.3743C21.3358 62.1117 20.2466 60.8119 20.2466 59.2758V54.8645C17.6455 53.9192 15.2622 52.5013 13.212 50.7026L9.48324 52.8951C8.20188 53.6566 6.54893 53.3678 5.60073 52.1993C3.52493 49.6523 1.33381 46.7376 0.193407 43.5735C-0.319136 42.1425 0.244661 40.5276 1.53883 39.753L5.80574 37.5473C5.30602 34.8034 5.30602 31.9806 5.80574 29.2235L1.53883 27.0047C0.244661 26.2433 -0.331949 24.6284 0.193407 23.1973C1.33381 20.0201 3.52493 17.1055 5.60073 14.5584C6.54893 13.39 8.18907 13.1011 9.48324 13.8626L13.212 16.0683C15.2622 14.2696 17.6455 12.8385 20.2466 11.9064V7.48191C20.2466 5.97207 21.2973 4.65917 22.7581 4.39659C25.9102 3.84517 29.2289 3.81891 32.4964 4.38346C33.9699 4.64604 35.0591 5.94581 35.0591 7.48191V11.8933C37.6603 12.8385 40.0436 14.2565 42.0937 16.0551L45.8225 13.8495C47.1038 13.088 48.7568 13.3768 49.705 14.5453C51.7808 17.0923 53.9591 20.007 55.0995 23.1842C55.612 24.6153 55.1123 26.2301 53.8181 27.0047L49.5 29.2104C49.9997 31.9675 49.9997 34.7902 49.5 37.5473V37.5473ZM34.4312 40.3175C42.0169 30.2082 30.7537 18.6678 20.8873 26.4402C13.3017 36.5495 24.5648 48.0899 34.4312 40.3175ZM65.6194 64.3042L64.5687 66.1817C64.1843 66.8775 63.3642 67.1664 62.6339 66.8907C61.1219 66.313 59.738 65.4858 58.5207 64.4487C57.9313 63.9498 57.7775 63.0701 58.1619 62.3874L59.2127 60.51C58.3285 59.4596 57.6366 58.2386 57.1753 56.9126H55.0611C54.2922 56.9126 53.6259 56.3481 53.4978 55.5603C53.2415 53.9848 53.2287 52.3306 53.4978 50.6895C53.6259 49.9017 54.2922 49.324 55.0611 49.324H57.1753C57.6366 47.998 58.3285 46.777 59.2127 45.7267L58.1619 43.8492C57.7775 43.1665 57.9185 42.2869 58.5207 41.788C59.738 40.7508 61.1347 39.9237 62.6339 39.346C63.3642 39.0703 64.1843 39.3591 64.5687 40.055L65.6194 41.9324C66.9649 41.683 68.3359 41.683 69.6813 41.9324L70.732 40.055C71.1164 39.3591 71.9365 39.0703 72.6669 39.346C74.1789 39.9237 75.5628 40.7508 76.78 41.788C77.3695 42.2869 77.5232 43.1665 77.1388 43.8492L76.0881 45.7267C76.9722 46.777 77.6642 47.998 78.1255 49.324H80.2397C81.0085 49.324 81.6748 49.8886 81.803 50.6763C82.0592 52.2518 82.072 53.9061 81.803 55.5472C81.6748 56.3349 81.0085 56.9126 80.2397 56.9126H78.1255C77.6642 58.2386 76.9722 59.4596 76.0881 60.51L77.1388 62.3874C77.5232 63.0701 77.3823 63.9498 76.78 64.4487C75.5628 65.4858 74.1661 66.313 72.6669 66.8907C71.9365 67.1664 71.1164 66.8775 70.732 66.1817L69.6813 64.3042C68.3487 64.5537 66.9649 64.5537 65.6194 64.3042ZM64.274 56.5713C69.2072 60.4574 74.8324 54.6938 71.0396 49.6391C66.1064 45.753 60.4812 51.5166 64.274 56.5713V56.5713Z" fill="url(#paint0_linear_1_2017)"/>
<defs>
<linearGradient id="paint0_linear_1_2017" x1="41" y1="2.06564e-06" x2="95.662" y2="91.1243" gradientUnits="userSpaceOnUse">
<stop stop-color="#8BD7DC"/>
<stop offset="1" stop-color="#1246A9"/>
</linearGradient>
</defs>
</svg>
