<svg width="102" height="76" viewBox="0 0 102 76" fill="none" xmlns="http://www.w3.org/2000/svg">
<path d="M81.6242 28.4307L80.3172 30.5605C79.839 31.3499 78.8189 31.6775 77.9104 31.3648C76.0297 30.7094 74.3083 29.7711 72.7941 28.5945C72.0609 28.0285 71.8696 27.0306 72.3478 26.2561L73.6548 24.1263C72.555 22.9348 71.6943 21.5497 71.1205 20.0454H68.4906C67.5343 20.0454 66.7054 19.4049 66.5461 18.5113C66.2273 16.724 66.2113 14.8474 66.5461 12.9857C66.7054 12.092 67.5343 11.4367 68.4906 11.4367H71.1205C71.6943 9.9324 72.555 8.54727 73.6548 7.35575L72.3478 5.22592C71.8696 4.45144 72.045 3.45355 72.7941 2.88758C74.3083 1.71096 76.0456 0.77264 77.9104 0.117307C78.8189 -0.195465 79.839 0.132201 80.3172 0.921579L81.6242 3.05141C83.2978 2.76843 85.0032 2.76843 86.6768 3.05141L87.9838 0.921579C88.4619 0.132201 89.482 -0.195465 90.3905 0.117307C92.2713 0.77264 93.9927 1.71096 95.5069 2.88758C96.2401 3.45355 96.4313 4.45144 95.9532 5.22592L94.6462 7.35575C95.746 8.54727 96.6067 9.9324 97.1805 11.4367H99.8104C100.767 11.4367 101.596 12.0771 101.755 12.9708C102.074 14.758 102.09 16.6347 101.755 18.4964C101.596 19.39 100.767 20.0454 99.8104 20.0454H97.1805C96.6067 21.5497 95.746 22.9348 94.6462 24.1263L95.9532 26.2561C96.4313 27.0306 96.256 28.0285 95.5069 28.5945C93.9927 29.7711 92.2554 30.7094 90.3905 31.3648C89.482 31.6775 88.4619 31.3499 87.9838 30.5605L86.6768 28.4307C85.0191 28.7136 83.2978 28.7136 81.6242 28.4307ZM79.9506 19.673C86.0871 24.0816 93.0842 17.5432 88.3663 11.809C82.2299 7.38554 75.2327 13.9389 79.9506 19.673ZM61.5731 42.5948L66.9445 45.097C68.5544 45.9608 69.2557 47.7928 68.6181 49.4311C67.1995 53.0354 64.4103 56.3419 61.8282 59.2313C60.6487 60.5568 58.6085 60.8845 56.9987 60.0207L52.3605 57.5185C49.8103 59.5589 46.8457 61.1824 43.6101 62.2399V67.2442C43.6101 68.9719 42.2872 70.4613 40.4701 70.7592C36.5492 71.3847 32.437 71.4145 28.3726 70.7592C26.5396 70.4613 25.1848 68.9868 25.1848 67.2442V62.2399C21.9492 61.1675 18.9846 59.5589 16.4344 57.5185L11.7962 60.0058C10.2023 60.8696 8.14623 60.542 6.96676 59.2164C4.38467 56.327 1.65913 53.0205 0.240579 49.4311C-0.396974 47.8076 0.304334 45.9757 1.91415 45.097L7.22178 42.5948C6.60017 39.4819 6.60017 36.2798 7.22178 33.152L1.91415 30.635C0.304334 29.7711 -0.412913 27.9392 0.240579 26.3157C1.65913 22.7114 4.38467 19.4049 6.96676 16.5155C8.14623 15.19 10.1864 14.8623 11.7962 15.7261L16.4344 18.2283C18.9846 16.1878 21.9492 14.5644 25.1848 13.5069V8.48769C25.1848 6.77489 26.4918 5.2855 28.3088 4.98762C32.2298 4.36207 36.3579 4.33229 40.4223 4.97273C42.2553 5.2706 43.6101 6.7451 43.6101 8.48769V13.492C46.8457 14.5644 49.8103 16.173 52.3605 18.2134L56.9987 15.7112C58.5926 14.8474 60.6487 15.1751 61.8282 16.5006C64.4103 19.39 67.1199 22.6965 68.5384 26.3008C69.176 27.9243 68.5544 29.7562 66.9445 30.635L61.5731 33.1371C62.1948 36.2649 62.1948 39.467 61.5731 42.5948ZM42.8291 45.7374C52.2649 34.2691 38.2547 21.1773 25.9818 29.9945C16.546 41.4628 30.5562 54.5546 42.8291 45.7374ZM81.6242 72.9486L80.3172 75.0784C79.839 75.8678 78.8189 76.1955 77.9104 75.8827C76.0297 75.2274 74.3083 74.289 72.7941 73.1124C72.0609 72.5464 71.8696 71.5486 72.3478 70.7741L73.6548 68.6442C72.555 67.4527 71.6943 66.0676 71.1205 64.5633H68.4906C67.5343 64.5633 66.7054 63.9229 66.5461 63.0292C66.2273 61.242 66.2113 59.3653 66.5461 57.5036C66.7054 56.61 67.5343 55.9546 68.4906 55.9546H71.1205C71.6943 54.4503 72.555 53.0652 73.6548 51.8737L72.3478 49.7439C71.8696 48.9694 72.045 47.9715 72.7941 47.4055C74.3083 46.2289 76.0456 45.2906 77.9104 44.6352C78.8189 44.3225 79.839 44.6501 80.3172 45.4395L81.6242 47.5693C83.2978 47.2864 85.0032 47.2864 86.6768 47.5693L87.9838 45.4395C88.4619 44.6501 89.482 44.3225 90.3905 44.6352C92.2713 45.2906 93.9927 46.2289 95.5069 47.4055C96.2401 47.9715 96.4313 48.9694 95.9532 49.7439L94.6462 51.8737C95.746 53.0652 96.6067 54.4503 97.1805 55.9546H99.8104C100.767 55.9546 101.596 56.5951 101.755 57.4887C102.074 59.276 102.09 61.1526 101.755 63.0143C101.596 63.908 100.767 64.5633 99.8104 64.5633H97.1805C96.6067 66.0676 95.746 67.4527 94.6462 68.6442L95.9532 70.7741C96.4313 71.5486 96.256 72.5464 95.5069 73.1124C93.9927 74.289 92.2554 75.2274 90.3905 75.8827C89.482 76.1955 88.4619 75.8678 87.9838 75.0784L86.6768 72.9486C85.0191 73.2316 83.2978 73.2316 81.6242 72.9486ZM79.9506 64.1761C86.0871 68.5847 93.0842 62.0462 88.3663 56.3121C82.2299 51.9035 75.2327 58.4419 79.9506 64.1761Z" fill="url(#paint0_linear_1_3454)"/>
<defs>
<linearGradient id="paint0_linear_1_3454" x1="51" y1="2.34332e-06" x2="110.188" y2="108.192" gradientUnits="userSpaceOnUse">
<stop stop-color="#8BD7DC"/>
<stop offset="1" stop-color="#1246A9"/>
</linearGradient>
</defs>
</svg>
