<svg width="68" height="61" viewBox="0 0 68 61" fill="none" xmlns="http://www.w3.org/2000/svg">
<path d="M67.0873 2.27555C67.0019 1.91903 66.8036 1.5922 66.5161 1.33435C66.2285 1.0765 65.8641 0.898612 65.4666 0.822059C61.1888 0 57.8424 0 54.5079 0C40.798 0 32.5747 6.57647 26.4384 15.2498H12.5956C11.4134 15.2507 10.2548 15.5463 9.24906 16.1036C8.24335 16.6609 7.43021 17.458 6.90043 18.4058L0.33507 30.1767C0.0926124 30.6128 -0.0215705 31.0971 0.00335825 31.5839C0.028287 32.0706 0.1915 32.5436 0.477508 32.9579C0.763516 33.3721 1.16283 33.714 1.63755 33.951C2.11227 34.188 2.64666 34.3123 3.18998 34.312H16.9756L13.9905 36.9891C13.1935 37.704 12.7457 38.6736 12.7457 39.6846C12.7457 40.6956 13.1935 41.6652 13.9905 42.3801L20.7525 48.4455C21.1473 48.7996 21.616 49.0805 22.1318 49.2721C22.6476 49.4638 23.2005 49.5624 23.7589 49.5624C24.3172 49.5624 24.8701 49.4638 25.3859 49.2721C25.9018 49.0805 26.3704 48.7996 26.7652 48.4455L29.7503 45.7684V58.1398C29.7502 58.6269 29.8887 59.106 30.1529 59.5315C30.4171 59.9571 30.7982 60.3151 31.26 60.5716C31.7217 60.828 32.2489 60.9745 32.7914 60.9969C33.334 61.0194 33.874 60.9173 34.3601 60.7001L47.4723 54.8158C48.5309 54.3416 49.4211 53.6121 50.0429 52.7093C50.6648 51.8064 50.9937 50.766 50.9927 49.7048V37.2655C60.6362 31.7493 67.9973 24.3508 67.9973 12.1164C68.0106 9.11413 68.0106 6.11183 67.0873 2.27555V2.27555ZM51.006 20.0153C49.955 20.0153 48.9276 19.7358 48.0538 19.2122C47.1799 18.6886 46.4988 17.9443 46.0966 17.0735C45.6944 16.2027 45.5892 15.2445 45.7942 14.3201C45.9992 13.3956 46.5053 12.5465 47.2485 11.88C47.9917 11.2136 48.9385 10.7597 49.9693 10.5758C51.0001 10.3919 52.0686 10.4863 53.0396 10.847C54.0106 11.2077 54.8405 11.8185 55.4244 12.6022C56.0083 13.3859 56.32 14.3072 56.32 15.2498C56.32 16.5137 55.7601 17.7258 54.7635 18.6195C53.767 19.5133 52.4154 20.0153 51.006 20.0153V20.0153Z" fill="url(#paint0_linear_1_2775)"/>
<defs>
<linearGradient id="paint0_linear_1_2775" x1="34" y1="1.88082e-06" x2="85.8289" y2="78.6905" gradientUnits="userSpaceOnUse">
<stop stop-color="#8BD7DC"/>
<stop offset="1" stop-color="#1246A9"/>
</linearGradient>
</defs>
</svg>
