<svg width="80" height="71" viewBox="0 0 80 71" fill="none" xmlns="http://www.w3.org/2000/svg">
<path d="M78.9262 2.6486C78.8258 2.23362 78.5924 1.85322 78.2542 1.5531C77.9159 1.25298 77.4872 1.04593 77.0195 0.956822C71.9869 0 68.0499 0 64.1269 0C47.9976 0 38.3231 7.65458 31.104 17.7498H14.8184C13.4276 17.7508 12.0644 18.0949 10.8812 18.7435C9.69806 19.3922 8.74142 20.3199 8.11815 21.4231L0.3942 35.1237C0.108956 35.6312 -0.0253771 36.195 0.00395089 36.7616C0.0332788 37.3281 0.225295 37.8786 0.561775 38.3608C0.898255 38.843 1.36804 39.2409 1.92653 39.5167C2.48503 39.7926 3.11371 39.9372 3.75292 39.9369H19.9713L16.4595 43.0529C15.5218 43.885 14.995 45.0135 14.995 46.1903C14.995 47.367 15.5218 48.4955 16.4595 49.3277L24.4147 56.3874C24.8791 56.7995 25.4305 57.1265 26.0374 57.3495C26.6443 57.5726 27.2947 57.6874 27.9516 57.6874C28.6085 57.6874 29.2589 57.5726 29.8658 57.3495C30.4727 57.1265 31.0241 56.7995 31.4885 56.3874L35.0004 53.2714V67.6709C35.0002 68.2379 35.1632 68.7955 35.4741 69.2908C35.7849 69.7862 36.2332 70.2028 36.7764 70.5013C37.3197 70.7998 37.9399 70.9703 38.5782 70.9964C39.2165 71.0226 39.8517 70.9037 40.4237 70.6509L55.8497 63.802C57.0951 63.2501 58.1424 62.401 58.8741 61.3501C59.6057 60.2993 59.9926 59.0883 59.9915 57.8531V43.3746C71.3367 36.9541 79.9968 28.3427 79.9968 14.1027C80.0125 10.6082 80.0125 7.11377 78.9262 2.6486V2.6486ZM60.0071 23.2965C58.7706 23.2965 57.5619 22.9712 56.5338 22.3617C55.5058 21.7523 54.7045 20.886 54.2313 19.8724C53.7581 18.8589 53.6343 17.7436 53.8755 16.6676C54.1168 15.5917 54.7122 14.6033 55.5865 13.8276C56.4608 13.0518 57.5747 12.5236 58.7874 12.3095C60.0002 12.0955 61.2572 12.2054 62.3995 12.6252C63.5419 13.045 64.5182 13.7559 65.2052 14.6681C65.8921 15.5803 66.2588 16.6527 66.2588 17.7498C66.2588 19.2209 65.6001 20.6317 64.4277 21.6719C63.2553 22.7122 61.6651 23.2965 60.0071 23.2965V23.2965Z" fill="url(#paint0_linear_1_3457)"/>
<defs>
<linearGradient id="paint0_linear_1_3457" x1="40" y1="2.18915e-06" x2="100.068" y2="92.1818" gradientUnits="userSpaceOnUse">
<stop stop-color="#8BD7DC"/>
<stop offset="1" stop-color="#1246A9"/>
</linearGradient>
</defs>
</svg>
